<?xml version="1.0" encoding="UTF-8"?>

<svg id="Layer_1" xmlns="http://www.w3.org/2000/svg" viewBox="0 0 1366 600"><defs><style>.cls-1{fill:#fff;}.cls-2{fill:#9db0b6;}.cls-3{fill:#aa534f;}
<![CDATA[
@keyframes steam-one {
      0% {
            transform-origin: 1148.1892px 472.2641px;
            transform: translateY(0) translateX(0) scale(0.60);
            opacity: 0.25;
      }      
      100% {
            transform-origin: 1148.1892px 472.2641px;
            transform: translateY(-75px) translateX(20px) scale(1);
            opacity: 0;
      }
}   

@keyframes steam-two {
      0% {
        transform-origin: 1148.1892px 472.2641px;
            transform: translateY(0) translateX(0) scale(0.45);
            opacity: 0.25;
      }
      100% {
        transform-origin: 1148.1892px 472.2641px;
            transform: translateY(-72px) translateX(-20px) scale(1);
            opacity: 0;
      }
}  

@keyframes steam-three {
      0% {
        transform-origin: 1148.1892px 472.2641px;
            transform: translateY(0) translateX(0) scale(0.45);
            opacity: 0.25;
      }
      100% {
        transform-origin: 1148.1892px 472.2641px;
            transform: translateY(-65px) translateX(-30px) scale(1);
            opacity: 0;
      }
}  




        .cls-1 {
      animation: steam-one 2s ease-out infinite;
}

#c2 {
      animation: steam-two 3s ease-out 0.5s infinite;
}

#c3 {
      animation: steam-three 1.5s ease-out 0.4s infinite;
}
        
        ]]>

</style>
</defs>

<circle class="cls-1" cx="1148.19" cy="469.57" r="26.55"/>

<circle id="c2" class="cls-1" cx="1146.4" cy="472.26" r="23.85"/>

<circle id="c3" class="cls-1" cx="1148.19" cy="472.26" r="25.66"/>

<g><path class="cls-3" d="M1206.91,489.84c-4-1.4-6.74-5.09-6.74-9.33v-4.54c0-2.05-1.66-3.71-3.7-3.71h-96.54c-2.05,0-3.71,1.66-3.71,3.71v78.39c0,6.26,1.65,12.13,4.55,17.2h94.84c1.53-2.67,2.71-5.57,3.49-8.63,.85-3.38,3.46-5.98,6.79-7,13.15-4.06,22.79-17.39,22.79-33.21s-9.14-28.45-21.77-32.88Zm-2.96,54.43c-1.8,.74-3.78-.64-3.78-2.59v-37.93c0-1.95,1.98-3.32,3.78-2.58,7.61,3.12,13.09,11.6,13.09,21.55s-5.48,18.42-13.09,21.55Z"/><path class="cls-2" d="M1195.61,571.56c-5.98,10.5-17.27,17.57-30.21,17.57h-34.4c-12.95,0-24.24-7.07-30.23-17.57h94.84Z"/></g></svg>