<?xml version="1.0" encoding="UTF-8"?><svg xmlns="http://www.w3.org/2000/svg" xmlns:xlink="http://www.w3.org/1999/xlink" viewBox="0 0 1366 600"><defs><style>.cls-1{fill:url(#New_Pattern_4);}.cls-1,.cls-2{mix-blend-mode:soft-light;}.cls-3{fill:#fff;}.cls-4{fill:#4f4840;}.cls-2{fill:url(#New_Pattern_4-2);}.cls-5{fill:#bb7572;}.cls-6{fill:#e7bc90;}.cls-7{isolation:isolate;}.cls-8{fill:#534741;}.cls-9{fill:#70625f;font-family:XanhMono-Regular, 'Xanh Mono';font-size:17.34px;letter-spacing:.2em;}.cls-10{stroke:#58889c;stroke-width:1.8px;}.cls-10,.cls-11,.cls-12,.cls-13{fill:none;}.cls-10,.cls-11,.cls-13{stroke-miterlimit:10;}.cls-14{fill:#f3b8a6;}.cls-15{fill:#9db0b6;}.cls-16{fill:#aa534f;}.cls-17,.cls-18{fill:#58889c;}.cls-19{fill:#554536;}.cls-20{fill:#a28178;}.cls-21{fill:#b5c4c8;}.cls-11{stroke-width:1.47px;}.cls-11,.cls-13{stroke:#554536;stroke-linecap:round;}.cls-22{fill:#eed0b8;mix-blend-mode:multiply;}.cls-23{fill:#ecc9a6;}.cls-18{font-family:FrederickatheGreat-Regular, 'Fredericka the Great';font-size:41.05px;}.cls-24{fill:#b8aea5;}.cls-25{fill:#715d56;}.cls-26{fill:#e3ebeb;}.cls-13{stroke-width:.55px;}</style><pattern id="New_Pattern_4" x="0" y="0" width="131.86" height="134.63" patternTransform="translate(-9227.82 -7319.86) rotate(-27) scale(.11)" patternUnits="userSpaceOnUse" viewBox="0 0 131.86 134.63"><g><rect class="cls-12" width="131.86" height="134.63"/><rect class="cls-8" x="105.48" width="8.37" height="134.63"/><rect class="cls-8" x="79.11" width="8.37" height="134.63"/><rect class="cls-8" x="52.74" width="8.37" height="134.63"/><rect class="cls-8" x="26.37" width="8.37" height="134.63"/><rect class="cls-8" width="8.37" height="134.63"/></g></pattern><pattern id="New_Pattern_4-2" patternTransform="translate(-9936.01 -8817.33) rotate(-117) scale(.11)" xlink:href="#New_Pattern_4"/></defs><g class="cls-7"><g id="Layer_1"><g><g><circle class="cls-10" cx="513.38" cy="271.27" r="78.46"/><ellipse class="cls-4" cx="521.31" cy="383.75" rx="6.75" ry="10.71"/><ellipse class="cls-4" cx="560.23" cy="372.51" rx="6.75" ry="10.71" transform="translate(-87.05 555.95) rotate(-49.44)"/><path class="cls-23" d="M514.53,351.22s1.78,31.23,5.84,35.72c4.06,4.48,8.36-37.3,8.36-37.3l-14.2,1.58Z"/><path class="cls-23" d="M537.56,356.63c.67-.15,19.87,20.46,25.01,17.53,5.14-2.93-20.79-32.29-20.79-32.29l-4.22,14.76Z"/><path class="cls-15" d="M520.37,346.7s15.81,12.78,21.58,4.53c5.77-8.24,7.87-15-6.68-36.25-14.55-21.25-14.9,31.72-14.9,31.72Z"/><path class="cls-25" d="M501.24,212.21c-1.81,1.53-4.41,1.58-6.31,.17-3.82-2.83-11.06-4.77-19.08,10.66-11.81,22.73-8.92,42-4.05,68.5,3.79,20.59-7.61,11.09-12.89,5.83-.71-.71-1.89,.04-1.56,.99,3,8.5,14.57,26.71,55.25-2.41,37.17,11.64,51.41,8.01,56.39-6.53,.25-.73-.53-1.39-1.2-1.01-14.15,8.04-15.51-.85-15.1-11.05s5.27-112.96-51.45-65.16Z"/><path class="cls-6" d="M546.19,274.11c-4.95-6.65-23.36-1.23-25.84-3.7-2.47-2.48-2.2-8.7-2.2-8.7h-9.55s.28,6.23-2.2,8.7c-2.47,2.48-20.89-2.94-25.84,3.7-2.51,3.37,5,9.75,5,9.75h55.62s7.51-6.38,5-9.75Z"/><path class="cls-23" d="M495.68,224.76l-8.71,1c.38,2.01,.97,8.7,1.1,10.74,.47,7.01,3.72,26.63,25.22,26.63s25.77-20.48,26.43-27.07v-.05c.47-4.56,.71-9.14,.53-13.72l-4.74-1.37-39.83,3.84Z"/><circle class="cls-3" cx="500.97" cy="239.62" r="5.83"/><circle class="cls-24" cx="500.39" cy="239.35" r="5.18"/><g><circle class="cls-19" cx="500.39" cy="239.35" r="3.8"/><circle class="cls-3" cx="498.73" cy="236.36" r="1.03"/><circle class="cls-3" cx="502.31" cy="242.73" r=".62"/><circle class="cls-3" cx="497.18" cy="237.23" r=".42"/><circle class="cls-3" cx="497.93" cy="238.05" r=".28"/></g><path class="cls-11" d="M502.77,230.61s-5.72-2.33-8.89,3.18"/><g><path class="cls-13" d="M492.08,235.56c.94,2.15,3.6,1.53,3.6,1.53"/><path class="cls-13" d="M491.31,238.43c1.77,1.54,3.91-.16,3.91-.16"/><path class="cls-13" d="M491.98,241.35c2.32,.37,3.24-2.2,3.24-2.2"/><path class="cls-13" d="M501.23,233.79s-6.5-.19-6.01,6.76"/></g><circle class="cls-3" cx="525.6" cy="239.62" r="5.83"/><circle class="cls-24" cx="526.19" cy="239.35" r="5.18"/><path class="cls-11" d="M523.81,230.61s5.72-2.33,8.89,3.18"/><path class="cls-13" d="M534.5,235.56c-.94,2.15-3.6,1.53-3.6,1.53"/><path class="cls-13" d="M535.27,238.43c-1.77,1.54-3.91-.16-3.91-.16"/><path class="cls-13" d="M534.59,241.35c-2.32,.37-3.24-2.2-3.24-2.2"/><path class="cls-13" d="M525.35,233.79s6.5-.19,6.01,6.76"/><circle class="cls-19" cx="526.19" cy="239.35" r="3.8"/><path class="cls-16" d="M520.13,252.14c-.61,.31-1.35,.59-2,.51-1.36-.16-1.79-2.28-2.99-2.45-.72-.1-1.26,.81-1.58,1.55-.12,.28-.52,.28-.64,0-.32-.74-.86-1.65-1.58-1.55-1.2,.17-1.63,2.28-2.99,2.45-.65,.08-1.4-.2-2-.51-.17-.09-.33,.14-.18,.26,.31,.26,.68,.54,1.1,.78,.55,3.08,3.39,3.34,4.95,3.24,.68-.04,1.36-.04,2.05,0,1.56,.1,4.4-.16,4.95-3.24,.42-.24,.79-.52,1.09-.78,.15-.12,0-.35-.18-.27Z"/><path class="cls-16" d="M520.31,252.41c-.31,.26-.67,.54-1.09,.78-.7,.41-1.54,.7-2.44,.65-.36-.02-.7-.02-1,0-.07,0-.13,0-.2,.01-.55,.04-.99,.14-1.34,.24-.03,.01-.07,.02-.1,.03-.03,.01-.07,.02-.1,.03-.03,.01-.06,.02-.09,.03-.06,.02-.12,.05-.17,.07-.33,.15-.72,.15-1.05,0-.05-.02-.11-.05-.17-.07-.03-.01-.06-.02-.09-.03-.03-.01-.06-.02-.1-.03-.03-.01-.07-.02-.1-.03-.35-.11-.79-.2-1.34-.24-.06,0-.13,0-.2-.01-.3-.02-.64-.02-1,0-.9,.06-1.74-.24-2.44-.65-.42-.24-.79-.52-1.1-.78-.14-.12,.01-.35,.18-.26,.6,.31,1.35,.59,2,.51,1.36-.17,1.79-2.28,2.99-2.45,.72-.1,1.26,.81,1.58,1.55,.12,.28,.52,.28,.64,0,.32-.74,.86-1.65,1.58-1.55,1.2,.17,1.63,2.29,2.99,2.45,.65,.08,1.4-.2,2-.51,.17-.09,.32,.14,.18,.27Z"/><path class="cls-5" d="M519.21,253.19c-.55,3.08-3.39,3.34-4.95,3.24-.68-.04-1.36-.04-2.05,0-1.56,.1-4.4-.16-4.95-3.24,.7,.41,1.54,.7,2.44,.65,.36-.02,.7-.02,1,0,.07,0,.13,0,.2,.01,.55,.04,.99,.14,1.34,.24,.03,.01,.07,.02,.1,.03,.03,.01,.07,.02,.1,.03,.03,.01,.06,.02,.09,.03,.06,.02,.12,.05,.17,.07,.33,.15,.72,.15,1.05,0,.05-.02,.11-.05,.17-.07,.03-.01,.06-.02,.09-.03,.03-.01,.06-.02,.1-.03,.03-.01,.07-.02,.1-.03,.35-.11,.79-.2,1.34-.24,.06,0,.13,0,.2-.01,.3-.02,.64-.02,1,0,.9,.06,1.74-.24,2.44-.65Z"/><path class="cls-22" d="M514.66,244.2c.47,0,.9,.18,1.13,.46,.78,.98,2.04,3.19-2.44,3.19s-3.08-2.27-2.25-3.23c.23-.26,.65-.42,1.1-.42h2.47Z"/><circle class="cls-19" cx="526.19" cy="239.35" r="3.8"/><circle class="cls-3" cx="524.53" cy="236.36" r="1.03"/><circle class="cls-3" cx="528.11" cy="242.73" r=".62"/><circle class="cls-3" cx="522.98" cy="237.23" r=".42"/><circle class="cls-3" cx="523.74" cy="238.05" r=".28"/><path class="cls-20" d="M490.34,218.76c1.49,1.71,2.34,3.87,2.56,6.12,.67,7.04,2.03,24.96-1.07,29.75-2.73,4.21-8.87,.09-12.28-2.74-.37-.3-.05-.9,.4-.76,1.5,.45,3.25,.43,4.27-1.39,1.92-3.41-2.15-40.44,6.12-30.98Z"/><path class="cls-20" d="M535.51,220.92s-5.59,31.72,2.69,34.88c4.31,1.64,7.26,1.26,9.1,.51,.72-.29,.47-1.36-.31-1.32-2.5,.12-5.64-.39-4.62-4,1.63-5.77,6.07-30.19-6.87-30.07Z"/><path class="cls-20" d="M491.62,220.03c-1.06-.42-2.06,.73-1.49,1.72,2.51,4.42,8.94,11.78,23.48,10.25,16.34-1.72,25.44-5.29,28.46-6.67,.76-.35,1.21-1.14,1.12-1.98-.25-2.47-1.76-7.48-9.55-9.49-9.89-2.55-26.81,12.13-42.03,6.17Z"/><path class="cls-14" d="M503.09,269.79c.93,0,1.77,.56,2.11,1.42,.96,2.44,3.52,7.16,9.02,7.16s7.16-3.95,7.82-6.26c.28-.97,1.19-1.61,2.2-1.6l12.38,.16,3.33,49.84c.2,2.92-2.01,5.45-4.93,5.64-10.98,.72-35.89,2.08-43.72,.34-1.12-.25-1.88-1.3-1.77-2.45,1.4-14.51,3.13-54.25,3.13-54.25h10.43Z"/><path class="cls-1" d="M503.09,269.79c.93,0,1.77,.56,2.11,1.42,.96,2.44,3.52,7.16,9.02,7.16s7.16-3.95,7.82-6.26c.28-.97,1.19-1.61,2.2-1.6l12.38,.16,3.33,49.84c.2,2.92-2.01,5.45-4.93,5.64-10.98,.72-35.89,2.08-43.72,.34-1.12-.25-1.88-1.3-1.77-2.45,1.4-14.51,3.13-54.25,3.13-54.25h10.43Z"/><path class="cls-2" d="M503.09,269.79c.93,0,1.77,.56,2.11,1.42,.96,2.44,3.52,7.16,9.02,7.16s7.16-3.95,7.82-6.26c.28-.97,1.19-1.61,2.2-1.6l12.38,.16,3.33,49.84c.2,2.92-2.01,5.45-4.93,5.64-10.98,.72-35.89,2.08-43.72,.34-1.12-.25-1.88-1.3-1.77-2.45,1.4-14.51,3.13-54.25,3.13-54.25h10.43Z"/><path class="cls-26" d="M514.46,296.51l-8.45-6.1c-.47-.34-1.12,.02-1.09,.59l.62,11.21c.02,.29,.22,.55,.5,.62l7.83,2.15c.44,.12,.87-.21,.87-.66v-7.26c0-.22-.11-.43-.28-.56Z"/><path class="cls-20" d="M504.19,313.79l-2.51-21.46c-.08-.66,.59-1.15,1.2-.88l9.31,4.17c.92,.41,1.98,.4,2.89-.04l9.78-4.72c.56-.27,1.2,.2,1.1,.82l-3.57,22.74-18.19-.64Z"/><path class="cls-6" d="M483.96,295.89s7.25,23.92,11.26,25.18c6.7,2.11,25.36-16.13,23.73-21.74-1.63-5.61-7.74,3.46-7.73,1.71,.02-1.75,1.88-2.22,2.13-3.53,.25-1.31-4.58,1.94-5.2,3.77-1.96,5.81-7.18,8.21-8.59,9.14-.13,.08-.3,.01-.33-.14l-3.45-29.54-11.82,15.15Z"/><path class="cls-17" d="M483.96,297.59l1.58,5.83c.19,.72,.98,1.09,1.66,.79l11.48-5.13c.61-.27,.89-1,.61-1.61l-3.33-7.24-12,7.36Z"/><path class="cls-14" d="M490.51,299.1c-3.39,2-7.85,1.17-10.12-2.04-.11-.16-.22-.33-.33-.5-3.04-4.89-7.91-26,5.52-28.39,11.6-2.06,22.61,20.51,4.94,30.93Z"/><path class="cls-23" d="M546.7,291.46s-3.53,30.78-10.84,30.5c-11.02-.41-11.72-7.42-18.24-12.3-4.99-3.73-12.37-1.99-9.02-5.74,3.35-3.75,8.33-.1,8.4-.75,.19-1.85-2.55-2.99-.44-2.99,1.35,0,2.91,2.19,4.87,3.96,3.77,3.41,6.22,4.57,9.29,5.71,.92,.34,1.89,.22,2.02-.75l1.98-23.1,11.97,5.46Z"/><path class="cls-17" d="M532.62,294.55l.02,4.98c-.16,.77,.45,1.48,1.24,1.45l12.35-.52c3.44-.28,.47-6.65,.47-6.65l-14.08,.74Z"/><path class="cls-14" d="M534.8,297.77c-1.25-.14-2.35-.87-2.8-2.04-2.43-6.35-9.15-26.74,4.62-26.83,16.31-.1,14.66,13.4,12.91,19.21-1.81,5.99-.83,11.24-14.73,9.67Z"/><path class="cls-21" d="M496.91,315.87l-5.71,8.14c-1.17,1.67-2.43,3.29-3.82,4.79-12.93,14.04,6.98,39.76,23.76,24.37,6.6-6.05,4.14-23.58,4.25-23.76,1.28-2.1,10.84,1.92,13.61,10.23,3,9,5.64,18.03,5.52,22.71-.04,1.46,1.15,2.67,2.61,2.63,3.37-.09,9.41-1.36,15.57-8.08,5.82-6.35,7.94-10.56,8.7-12.82,.37-1.09-.03-2.29-.99-2.93-4.86-3.23-20.7-13.98-25.35-19.66-5.05-6.17-15.82-18.86-31.61-11.24-2.63,1.27-4.87,3.21-6.55,5.6Z"/><path class="cls-15" d="M511.96,368.6c-1.08-.37-1.78-1.4-1.77-2.54,.12-8.14,1.1-40.06,8.98-40.69,8.15-.65,14.9,30.07,16.14,36.07,.14,.69,.01,1.41-.38,1.99-1.87,2.78-8.42,10.18-22.97,5.17Z"/><path class="cls-17" d="M504.9,270.8c-.38-.52-1.15-.52-1.53,0-1.18,1.64-2.87,4.85,.34,6.64,3.73,2.08,7.93,1.28,9.17,.97,.24-.06,.49-.06,.73,0,1.71,.47,8.71,2.27,10.12,.4,2.45-3.24-.04-5.03-.79-6.95-.18-.46-.83-.47-1.02-.01-.91,2.16-3.31,6.18-8.54,5.69-3.39-.32-6.99-4.72-8.48-6.75Z"/></g><g><text class="cls-18" transform="translate(607.84 279.05)"><tspan x="0" y="0">Michelle Alzola</tspan></text><text class="cls-9" transform="translate(605.81 303.87)"><tspan x="0" y="0">Calgary, Alberta</tspan></text><text class="cls-9" transform="translate(605.81 322.2)"><tspan x="0" y="0">Mobile: 403.392.7586</tspan></text><text class="cls-9" transform="translate(605.81 340.54)"><tspan x="0" y="0">michelle.alzola@yahoo.ca</tspan></text></g></g><g><path class="cls-15" d="M109.37,113.55c-3.87,3.71-8.26,5.73-13.7,5.4-5.75-.35-7.94-2.88-11.62-7.32-.4-.34-.71-.36-1.12-.38-1.14-.07-3.15,4.75-4.09,5.63-.33,.34-2.5,1.82-3.09,2.1-.49,.28,.14-.67-2.34,.84-1.73,1.04-5.63,1.01-6.84-.42-.05,0-1.75-1.98-2.43-2.8-.72-.93-1.17-2.93-1.1-4.07,.37-6.06,7.13-8.61,12.42-8.29,1.92,.12,3.44,1.56,5.36,1.68,.26,.02,.52,.03,.7-.32,.25-.66,1.38-3.82,1.58-4.48l.03-.47c.02-.26,.1-.72-.32-.8-5.62,.07-9.43-3.18-12.91-7.4-1.07-1.26-1.5-2.59-1.4-4.3,.25-4.04,3.17-6.67,6.12-9.04,.5-.44,.96-.36,1.53-.32,.72,.04,1.44,.25,1.39,1.13-.07,1.14-6.14,4.2-6.39,8.4-.28,4.51,7.12,8.6,10.79,8.83,1.04,.06,2.19-.02,2.72-1.13,.11-.15,.42-1.74,.48-1.89,1.79-5.4,4.06-11.04,9.04-14.16,.49-.28,1.44-.59,1.98-.87,.96-.46,3.38,.05,5.18,.32,2.88,.49,2.62,6.4,2.53,7.85l-.09,1.45c-.52,.8-3.02,4.29-3.58,4.98-3.26,4.01-7.72,4.62-12.4,5.43-2.07,.76-2.03,3.46-2.6,5.09l-1.2,2.53-.04,.67c-.1,1.61,2.25,2.32,3.14,3.1l.56,1.02c2.07,2.62,4.92,4.57,8.29,4.77,2.69,.17,5.65-.54,8.15-1.48,1.33-.54,3.06-2.46,4.57-2.37,.52,.03,.82,.15,.79,.72,0,.1-.07,.31-.07,.36Zm-34.71-6.4c-3.37-.21-8.72,1.44-8.97,5.53-.12,2.02,2.06,4.55,4.08,4.67,4.35,.27,9.61-3.26,9.9-7.97,.11-1.71-3.92-2.17-5.01-2.23Zm26.43-23.86c-.67-.98-1.63-1.4-2.35-1.44-1.24-.08-1.81-.11-3.1,.49-.5,.44-2.91,2.53-3.46,3.06-2.04,1.9-2.16,3.87-2.94,6.32-.57,1.63-1.63,2.81-1.73,4.52,5.13,.32,9.46-2.38,12.26-6.53,.28-.4,1.04-1.76,1.05-1.86,0,0,1.05-3.47,.28-4.56Z"/><path class="cls-15" d="M126.46,112.11c-.45,1.43-1.55,3.28-2.83,4.51-2.48,2.29-5.45,3.98-8.87,3.77-1.55-.09-3.5-.53-4.84-1.65-1.44-1.13-2.26-3.05-2.15-4.71,.21-3.37,1.36-6.89,3.98-9.84,1.68-1.92,4.06-3.44,6.91-3.27,1.61,.1,3.14,1.44,3.04,3.05-.12,1.87-.95,3.53-2.23,4.91-1.28,1.33-2.96,2.37-4.71,3.04-.91,.36-3.23,.89-4.36,1.6-.29,.5-.1,.77-.08,1.35,.01,.62,.77,1.82,1.58,2.28,.1,.06,1.24,1.01,3,1.12,2.77-.14,5.09-1.56,7.13-3.46,.88-.83,1.43-2.04,3-3.92,.45-.49,.34-.45,.86-.42,.62,.04,.75,.46,.72,.98-.01,.21-.08,.46-.15,.67Zm-8.15-8.77c-1.67,.11-3.22,.84-4.38,1.92-1.43,1.32-2.7,3.32-2.8,4.98-.02,.26-.41,.7-.1,.83,1.85-.56,3.68-1.44,4.92-2.25,1.36-.91,2.42-2.14,3.37-4.06,.05-.05,.07-.26,.07-.31,.02-.36-.6-1.18-1.08-1.11Z"/><path class="cls-15" d="M141.25,99.08c-.68,.06-7.67-.42-8.3-.41-1.29,1.53-3.92,7.87-4.68,10.17-.13,.36-1.34,3.14-1.41,3.5,0,.05-.53,2.78-.62,4.23-.06,1.04,.95,2.35,1.88,2.4l.11-.04c.37-.08,1.98-.03,2.08-.08,.22-.14,.58-.17,.95-.2,1.45-.69,3.42-2.34,4.13-2.97,1.07-1.29,1.99-2.69,3.11-3.97,.39-.5,.34-.45,.8-.42,.67,.04,.75,.46,.72,.98-.01,.21-.03,.47-.09,.67-.45,1.43-1.55,3.29-2.88,4.5-1.05,.98-2.11,2.11-3.82,2.88-1.03,.61-3.3,1.25-4.8,1.16-3.73-.23-5.01-3.12-4.81-6.38,.02-.31,.47-2.52,.49-2.83,.52-1.63,3.19-7.08,3.71-8.72,.32-.92,1.79-3.74,2.24-5.06-.47,.02-1.97-.07-2.43-.2-.36-.13-2.4-.67-2.34-1.65,.05-.88,1.26-1.07,1.89-1.08,1.56,0,2.99,.39,4.09,.25,.05-.05,1.78-2.8,2.31-3.81l1.67-3.43,1.68-2.86c.34-.55,1.76-3.22,3-3.14,.57,.04,1.32,.5,1.28,1.17-.07,1.19-1.57,2.71-2.15,3.72-.17,.3-4.73,8.5-4.73,8.5,1.19,.12,5.7,.35,7.98,.49,.47,.03,1.14,.85,1.12,1.26-.05,.88-1.54,1.31-2.17,1.38Z"/><path class="cls-15" d="M149.1,90.72c-1.88,3.58-3.14,5.32-6.5,5.11l.03-.42c2.13-1.58,2.47-2.08,3.91-4.39,1.09-1.65,1.77-3.43,1.9-5.45,.09-1.4-.51-2.68-.43-4.03,.06-.93,.83-.78,1.6-.73,1.81,.11,1.64,2.08,1.56,3.48-.11,1.81-.83,4.21-2.06,6.43Z"/><path class="cls-15" d="M166.41,114.56c-.45,1.43-1.55,3.28-2.88,4.5-1.66,1.56-5.28,3.89-8.55,3.69-.78-.05-1.23-.23-1.48-.51-1.01,.3-1.02,.51-2.06,.45-2.28-.14-3.46-2.03-3.34-4.11,.03-.47,.37-.91,.95-.98,2.19-.18,3.08,2.27,5.36,2.41,3.21,.2,3.68-3.99,3.86-6.99,.04-.62-1.28-4.5-2.17-5.28-.21,.09-.44,.44-.73,.84l-.86,1.25c-.17,.2-.46,.7-.81,1.3-.58,1-.42,.96-.83,1.72l-.23,.35c-.58,1-1.24,1.59-1.57,1.78-.38,.24-1.27,.29-1.54-.25-.23-.48,.1-1.66,.28-1.96l.45-.54,.96-1.19c.9-1.09,.53-1.01,1.96-3.16,.63-1,1.2-1.69,1.81-2.44-.17-.63-.76-1.24-.69-2.33,0-.16,.11-.88,.12-1.14,1-1.03,2.49-2.39,3.99-2.3l.41,.03c.5,.34,1.42,1.44,1.38,2.17-.13,2.12-2.15,2.83-2.23,4.08v.1c.82,1.71,2.42,4.52,2.76,6.52,.2,1.05-.29,3.05-.51,4.08-.22,.97-.54,1.94-1.16,2.84,1.19-.81,2.35-1.78,2.84-2.22,.88-.83,1.42-2.04,3.05-3.92,.39-.5,.34-.45,.81-.42,.67,.04,.75,.46,.72,.98-.01,.21-.03,.47-.09,.67Zm-8.91-12.51c-.52-.03-.88,0-.92,.57-.01,.21,.13,1.21,.19,1.21,.6-.43,.9-1.14,.94-1.71,0-.05-.1-.06-.21-.06Z"/><path class="cls-15" d="M210.97,117.3c-.45,1.43-1.55,3.29-2.83,4.51-.88,.78-2.13,1.74-3.48,2.54-.7,.37-3.48,1.61-3.89,1.58-.62-.04-2.11-.39-2.44-.93,.02-.26-.29-1.16-.28-1.37,.08-1.35,.42-2.57,.96-3.79,.48-1.06,1.07-2.12,1.65-3.12,.88-1.56,1.8-3.06,2.31-4.64,.25-.71,.45-1.43,.5-2.21h-.21c-.1-.02-2.06,1.32-2.77,1.9-.82,.68-1.41,1.73-1.98,2.58-.46,.65-.96,1.24-1.47,1.83-.95,1.14-1.96,2.22-2.71,3.53-.18,.35-1.29,2.42-1.52,2.77l-2.27,3.08-.59,.28h-.16c-.78-.06-1.05-.65-1.01-1.27,0-.1,.08-.52,.09-.57,1.96-3.99,3.42-7.43,5.33-11.43,.06-.15,.92-1.5,.99-1.71,0-.05,.38-1.07,.39-1.28,0-.16-.04-1.04-.03-1.15-4.93,4.01-8.9,10.32-12.75,15.29-.45,.54-.51,.64-1.08,.61-.73-.04-1.31-.7-1.26-1.43,.09-1.4,1.19-2.42,1.73-3.64,.18-.46,2-3.83,2.24-4.28,.42-.96,.95-1.87,1.42-2.77,.87-2.34,1.42-4.44,1.06-4.56-.56-.19-2.48,2.34-3.57,3.94-.46,.65-1.5,2.35-2.02,3.26-.53,1.01-1.29,1.53-1.61,1.72-.38,.24-1,.2-1.28-.34-.28-.49,.1-1.66,.28-1.96l.4-.55c.22-.25,.34-.45,.79-1.04,.9-1.09,.89-.93,2.17-3.14,1.22-2.11,3.44-4.31,5.2-4.21,.78,.05,1.22,.44,1.62,.78,.25,.22,.49,1.28,.53,1.59,.1,.84-.15,1.6-.34,2.11l-1.14,3.26c1.54-.53,5.83-8.54,9.56-8.31,.16,0,.94-.1,1.02,.38l-.1,1.61c-.08,1.29-.13,2.12-.52,3.4l-.76,2.29c1.09-1.6,4.45-4.62,5.09-4.99l2.44-.74s.11-.04,.16-.04c1.09,.07,1.58,1.29,1.53,2.23-.07,1.14-.45,2.31-1,3.53-1.5,3.29-4.16,6.77-4.91,9.63-.07,.26-.09,.62-.11,.88,.05,0,.85,.52,.85,.52,.96-.41,2.04-.97,3.01-1.58,.92-.67,1.85-1.34,2.58-2.18,1.05-1.08,1.82-2.49,2.77-3.63,.45-.49,.34-.45,.86-.42,.62,.04,.75,.46,.72,.98-.01,.21-.08,.46-.14,.67Z"/><path class="cls-15" d="M232.42,118.62c-.45,1.43-1.55,3.29-2.88,4.5-1.66,1.56-5.03,3.9-7.46,3.75h-.05c-2.07-.13-3.34-1.51-3.47-4.53-.15-.06-1.86,1.55-1.97,1.59-1.71,.83-2.82,2.69-5.67,2.51-1.35-.08-2.4-1.6-3.07-2.48l.1-1.61c.17-2.85,1.21-6.11,2.83-8.88,2.31-3.81,5.87-6.66,10.22-6.39,2.49,.15,2.17,3.62,2.48,5.35,.85-1.2,1.57-1.05,2.13-.75,.5,.29,.18,1.26-.21,1.81-1.19,1.54-4.04,5.58-4.44,8-.32,1.8,.33,3.09,1.62,3.17,1.24,.08,4.48-2.59,5.36-3.36,.88-.83,1.48-2.04,3.05-3.92,.39-.5,.34-.45,.86-.42,.62,.04,.75,.46,.72,.98-.01,.21-.08,.46-.14,.67Zm-12.66-9c-2.43-.15-4.87,2.3-6.66,5.21-1.62,2.66-2.74,5.71-2.86,7.68-.03,.42-.04,.57,.3,1.01l.78,.05c1.09,.07,2.31-.43,3.14-1.11,.66-.53,3.92-3.76,4.48-4.41,1.14-1.65,1.9-3.78,2.01-5.7,.05-.78,.11-2.65-1.19-2.73Z"/><path class="cls-15" d="M252.94,123.21c-2.34,2.51-3.69,4.19-7.58,4.94-.58,.12-1.26,.13-1.83,.1-.57-.04-.83-.05-1.33-.29-1.32-.55-2.17-2.68-2.06-4.5s.55-2.15,.66-4.02c.09-1.4-2.36-1.34-2.25-3.15,.06-1.04,1.22-1.23,2.05-1.17,.93,.06,1.67,.73,2.6,.78,1.76,.11,3.69-1.59,3.79-3.3,.04-.72-.23-1.37-.8-1.4-.21-.01-2.59,.62-2.86,.76-3.11,1.53-6.06,2.18-9.27,6.19-1.13,1.44-2.08,5.12-3.8,7.67-.57,.8-1.12,1.33-1.64,1.3-.36-.02-.68,.06-1.04,.04-.31-.02-.51-.19-.49-.55,.05-.88,1.7-3.9,2.17-4.86,1.07-2.12,4.64-10.38,4.76-12.34-.23-.54-.25-1.06-.21-1.63,.05-.83,.94-.93,1.49-1.36,1.33-3.87,2.57-7.9,4.2-11.65,.91-2.08,4.23-7.02,6.82-6.86,2.07,.13,2.09,3.2,2,4.7-.29,4.77-3.74,10.95-7.31,14.06-1.21,1.02-2.6,1.71-3.95,2.51-.41,.7-2.42,4.69-2.57,5.46,3.25-3.75,9.42-6.03,12.48-5.84,1.4,.09,2.68,1.31,2.6,2.5-.26,4.25-2.89,6.48-6.96,6.65,.39,.49,.45,1.07,.42,1.64-.1,1.61-.42,1.69-.51,3.25-.11,1.76-.55,3.09,1.78,3.23,2.64,.16,5.15-2.49,6.94-4.67,.79-.99,1.53-2.04,2.03-2.58,.33-.34,.54-.38,.86-.36,.57,.04,.81,.41,.72,1.03-.16,.82-1.56,3.39-1.89,3.73Zm-7.32-32.38c-2.69-.17-7.22,12.61-7.38,15.15,.58-.12,1.42-1.16,1.87-1.6,2.89-3,4.56-6.43,5.58-10.42,.2-.72,.45-1.38,.49-2.1,.03-.42-.04-.99-.56-1.02Z"/><path class="cls-15" d="M270.03,120.93c-.45,1.43-1.55,3.28-2.83,4.51-2.48,2.29-5.45,3.98-8.86,3.77-1.55-.1-3.5-.53-4.84-1.65-1.44-1.13-2.26-3.05-2.15-4.71,.21-3.37,1.36-6.89,3.98-9.84,1.68-1.92,4.06-3.44,6.91-3.27,1.61,.1,3.14,1.44,3.04,3.05-.12,1.87-.95,3.53-2.23,4.91-1.28,1.33-2.96,2.37-4.71,3.04-.91,.36-3.23,.89-4.36,1.6-.29,.5-.1,.77-.08,1.35,.01,.62,.77,1.82,1.58,2.28,.1,.06,1.24,1.01,3,1.12,2.76-.14,5.09-1.56,7.13-3.46,.88-.83,1.43-2.04,3-3.92,.45-.49,.34-.45,.86-.42,.62,.04,.75,.46,.72,.98-.01,.21-.08,.46-.15,.67Zm-8.15-8.77c-1.67,.11-3.22,.84-4.38,1.92-1.43,1.32-2.7,3.32-2.8,4.98-.02,.26-.41,.7-.1,.83,1.85-.56,3.68-1.44,4.92-2.25,1.36-.91,2.42-2.14,3.37-4.06,.05-.05,.07-.26,.07-.31,.02-.36-.6-1.18-1.08-1.11Z"/><path class="cls-15" d="M298.92,108.77c-.68,.06-7.67-.42-8.3-.41-1.29,1.53-3.92,7.87-4.68,10.17-.13,.36-1.34,3.14-1.41,3.5,0,.05-.53,2.78-.62,4.23-.06,1.04,.95,2.35,1.88,2.4l.11-.04c.37-.08,1.98-.03,2.08-.08,.22-.14,.58-.17,.95-.2,1.45-.69,3.42-2.34,4.13-2.97,1.07-1.29,1.99-2.69,3.11-3.97,.39-.5,.34-.45,.8-.42,.67,.04,.75,.46,.72,.98-.01,.21-.03,.47-.09,.67-.45,1.43-1.55,3.29-2.88,4.5-1.05,.98-2.11,2.11-3.82,2.89-1.03,.61-3.3,1.25-4.8,1.16-3.73-.23-5.01-3.12-4.81-6.38,.02-.31,.47-2.52,.49-2.83,.52-1.63,3.19-7.08,3.71-8.72,.32-.92,1.79-3.74,2.24-5.06-.47,.02-1.97-.07-2.43-.2-.36-.13-2.4-.67-2.34-1.65,.05-.88,1.26-1.07,1.89-1.08,1.56,0,2.99,.39,4.09,.25,.05-.05,1.78-2.8,2.31-3.81l1.67-3.43,1.68-2.86c.34-.55,1.76-3.22,3-3.14,.57,.03,1.32,.5,1.28,1.17-.07,1.19-1.57,2.71-2.15,3.72-.17,.3-4.73,8.5-4.73,8.5,1.19,.12,5.7,.35,7.98,.49,.47,.03,1.14,.85,1.12,1.26-.05,.88-1.54,1.31-2.17,1.38Z"/><path class="cls-15" d="M318.17,123.89c-.45,1.43-1.55,3.29-2.88,4.5-1.66,1.56-5.08,3.9-7.51,3.75-4.97-.31-4.48-3.29-2.97-6.74,1.03-2.33,1.9-4.72,3.13-6.93l.02-.31c0-.16,.04-.57-.28-.59-.1,0-.53,.18-.59,.22-1.42,1.06-3.26,2.19-4.53,3.47-1.66,1.67-3.66,3.62-4.92,5.52-1.26,1.9-1.36,2.67-2.52,4.63-.84,.1-1.75,.46-2.63,.41-.47-.03-.66-.25-.63-.77,0-.05,1.77-3.38,3.45-6.96,1.8-3.89,3.2-7.24,3.51-8,0-1.72,1.13-1.54,1.68-2.86,.25-.66,1.91-4.77,2.16-5.48,.94-2.65,6.03-15.13,10.43-14.86,2.49,.15,2.65,2.61,2.53,4.58-.32,5.23-5.62,12.71-9.76,15.83-1.04,.77-2.77,1.86-4.06,2.56-.54,1.21-2.35,3.55-2.48,5.67l1.51-1.73c1.88-1.76,6.36-6.16,8.95-6,.36,.02,1.97,.07,1.98,.85-.06,3.53-3.75,8.61-4.74,11.15-.99,2.49-1.44,3.97,1.31,4.14,1.24,.08,4.48-2.59,5.36-3.36,.88-.83,1.43-2.04,3.05-3.92,.39-.5,.34-.45,.81-.42,.67,.04,.75,.46,.72,.98-.01,.21-.03,.47-.09,.67Zm-5.68-27.76c-2.12-.13-9.11,14.47-9.21,16.13,1.5,.09,4.27-3.53,5.02-4.74,1.22-2.06,4.71-7.25,4.88-10.05,.03-.47,.03-1.3-.7-1.34Z"/><path class="cls-15" d="M328.58,124.53c-.45,1.43-1.55,3.28-2.88,4.5-1.66,1.56-5.03,3.9-7.51,3.75-.88-.05-1.71-.16-1.9-.43-1.44-1.18-1.73-4.06-1.64-5.46,.31-5.03,3.93-8.91,6.05-13.05,.23-.3,.99-.93,1.4-.75,.35,.18,1.03,1.05,1,1.57v.16c-2.39,3.96-5.65,7.98-5.93,12.64-.04,.57,.29,2.88,1.17,2.93,.57,.04,1.15-.03,1.73-.26,1.5-.74,3.42-2.34,4.03-2.92,.88-.83,1.48-2.04,3.05-3.92,.39-.5,.34-.45,.86-.42,.62,.04,.75,.46,.72,.98-.01,.21-.08,.46-.15,.67Zm-3.94-15.38c-1.04-.06-1.94-1.37-1.88-2.46,.09-1.4,1.88-2.64,3.23-2.56,1.09,.07,1.52,.61,1.46,1.7-.07,1.19-1.41,3.4-2.8,3.31Z"/><path class="cls-15" d="M343.29,125.44c-.45,1.43-1.55,3.29-2.88,4.5-1.66,1.56-5.28,3.89-8.55,3.69-.78-.05-1.23-.23-1.48-.51-1.01,.3-1.02,.51-2.06,.45-2.28-.14-3.46-2.03-3.34-4.11,.03-.47,.37-.91,.95-.98,2.19-.18,3.08,2.27,5.36,2.41,3.21,.2,3.68-3.99,3.86-6.99,.04-.62-1.28-4.5-2.17-5.28-.21,.09-.44,.44-.73,.84l-.86,1.25c-.17,.2-.46,.7-.81,1.3-.58,1-.42,.96-.83,1.72l-.23,.35c-.58,1-1.24,1.59-1.57,1.78-.38,.24-1.27,.29-1.54-.25-.23-.48,.1-1.66,.28-1.96l.45-.54,.96-1.19c.9-1.09,.53-1.01,1.96-3.16,.63-1,1.2-1.69,1.81-2.44-.17-.63-.76-1.24-.69-2.33,0-.15,.11-.88,.12-1.14,1-1.03,2.49-2.4,3.99-2.3l.41,.03c.5,.34,1.42,1.44,1.38,2.16-.13,2.12-2.15,2.83-2.23,4.08v.1c.82,1.72,2.42,4.52,2.76,6.52,.2,1.05-.29,3.05-.51,4.08-.22,.97-.54,1.94-1.16,2.84,1.19-.81,2.35-1.78,2.84-2.22,.88-.83,1.42-2.04,3.05-3.92,.39-.5,.34-.45,.81-.42,.67,.04,.75,.46,.72,.98-.01,.21-.03,.47-.09,.67Zm-8.91-12.51c-.52-.03-.88,0-.92,.57-.01,.21,.13,1.21,.19,1.21,.6-.43,.9-1.14,.94-1.71,0-.05-.1-.06-.21-.06Z"/><path class="cls-15" d="M372.1,127.21c-.45,1.43-1.55,3.28-2.88,4.5-1.66,1.56-5.28,3.89-8.55,3.69-.78-.05-1.23-.23-1.48-.51-1.01,.3-1.02,.51-2.06,.45-2.28-.14-3.46-2.03-3.34-4.11,.03-.47,.37-.91,.94-.98,2.2-.18,3.09,2.27,5.36,2.41,3.21,.2,3.68-3.99,3.86-6.99,.04-.62-1.28-4.5-2.17-5.28-.21,.09-.44,.44-.73,.84l-.86,1.25c-.17,.2-.46,.7-.81,1.3-.58,1-.42,.96-.83,1.72l-.23,.35c-.58,1-1.24,1.59-1.57,1.78-.38,.24-1.27,.29-1.54-.25-.23-.48,.1-1.66,.28-1.96l.45-.54,.96-1.19c.9-1.09,.53-1.01,1.96-3.16,.63-1,1.2-1.69,1.81-2.44-.17-.63-.76-1.24-.69-2.33,0-.16,.11-.88,.12-1.14,1-1.03,2.49-2.39,3.99-2.3l.41,.03c.5,.34,1.42,1.44,1.38,2.17-.13,2.12-2.15,2.83-2.23,4.08v.1c.82,1.71,2.42,4.52,2.76,6.52,.2,1.05-.29,3.05-.51,4.08-.21,.97-.54,1.94-1.16,2.84,1.19-.81,2.35-1.78,2.84-2.22,.88-.83,1.43-2.04,3.05-3.92,.39-.5,.34-.45,.8-.42,.67,.04,.75,.46,.72,.98-.01,.21-.03,.47-.09,.67Zm-8.91-12.51c-.52-.03-.88,0-.92,.57-.01,.21,.13,1.2,.19,1.21,.6-.43,.9-1.14,.94-1.71,0-.05-.1-.06-.21-.06Z"/><path class="cls-15" d="M382.51,127.85c-.45,1.43-1.55,3.29-2.88,4.5-1.66,1.56-5.03,3.9-7.51,3.75-.88-.05-1.71-.16-1.9-.43-1.44-1.18-1.73-4.06-1.64-5.46,.31-5.03,3.93-8.91,6.05-13.05,.23-.3,.99-.93,1.4-.75,.35,.18,1.03,1.05,.99,1.57v.16c-2.38,3.96-5.65,7.97-5.93,12.64-.04,.57,.29,2.88,1.17,2.93,.57,.04,1.15-.03,1.73-.26,1.5-.74,3.42-2.34,4.03-2.92,.88-.83,1.48-2.04,3.05-3.92,.39-.5,.34-.45,.86-.42,.62,.04,.75,.46,.72,.98-.01,.21-.08,.46-.15,.67Zm-3.94-15.38c-1.04-.06-1.94-1.37-1.88-2.46,.09-1.4,1.88-2.64,3.23-2.56,1.09,.07,1.52,.61,1.46,1.7-.07,1.19-1.41,3.4-2.8,3.31Z"/><path class="cls-15" d="M412.98,129.72c-.45,1.43-1.55,3.29-2.83,4.51-.88,.78-2.13,1.74-3.48,2.54-.7,.37-3.48,1.61-3.89,1.58-.62-.04-2.11-.39-2.44-.93,.02-.26-.29-1.16-.28-1.37,.08-1.35,.42-2.58,.96-3.79,.48-1.06,1.07-2.12,1.65-3.12,.88-1.56,1.8-3.06,2.31-4.64,.25-.71,.45-1.43,.5-2.21h-.21c-.1-.02-2.06,1.32-2.77,1.9-.82,.68-1.41,1.73-1.98,2.58-.46,.65-.96,1.24-1.46,1.83-.96,1.14-1.96,2.22-2.71,3.53-.18,.35-1.29,2.42-1.52,2.77l-2.27,3.08-.59,.28h-.15c-.78-.06-1.05-.65-1.01-1.27,0-.1,.08-.51,.09-.57,1.96-3.99,3.42-7.44,5.33-11.43,.06-.15,.92-1.5,.99-1.71,0-.05,.38-1.07,.39-1.28,0-.16-.04-1.04-.03-1.15-4.93,4.01-8.91,10.32-12.75,15.29-.45,.54-.51,.64-1.08,.61-.72-.04-1.31-.71-1.26-1.43,.09-1.4,1.19-2.42,1.73-3.64,.18-.46,2-3.83,2.24-4.28,.42-.96,.95-1.87,1.42-2.77,.87-2.34,1.42-4.44,1.06-4.56-.56-.19-2.48,2.34-3.57,3.94-.46,.65-1.5,2.35-2.02,3.26-.53,1.01-1.29,1.53-1.61,1.72-.38,.24-1,.2-1.28-.34-.28-.49,.1-1.66,.28-1.96l.4-.55c.22-.25,.34-.45,.79-1.04,.9-1.09,.89-.93,2.17-3.14,1.22-2.11,3.44-4.31,5.2-4.21,.78,.05,1.22,.44,1.62,.78,.25,.22,.49,1.28,.53,1.59,.1,.84-.15,1.6-.34,2.11l-1.14,3.26c1.54-.53,5.83-8.54,9.56-8.31,.16,0,.94-.1,1.02,.38l-.1,1.61c-.08,1.3-.13,2.12-.52,3.4l-.77,2.29c1.09-1.6,4.45-4.62,5.09-4.99l2.44-.73s.11-.04,.16-.04c1.09,.07,1.59,1.29,1.53,2.23-.07,1.14-.46,2.31-1,3.53-1.5,3.29-4.16,6.77-4.91,9.63-.07,.26-.09,.62-.11,.88,.05,0,.85,.52,.85,.52,.96-.41,2.04-.97,3.01-1.58,.93-.67,1.85-1.34,2.58-2.18,1.05-1.08,1.82-2.49,2.77-3.62,.45-.49,.34-.45,.86-.42,.62,.04,.75,.46,.72,.98-.01,.21-.08,.46-.14,.67Z"/><path class="cls-15" d="M437.75,131.24c-.45,1.43-1.55,3.28-2.88,4.5-1.43,1.32-4.15,4.06-7.31,3.87-2.02-.12-7.81-1.57-7.63-4.53,.03-.52,.08-1.3,.86-1.25h.16c.15,.07,1.26,.66,1.42,.67,.05,0,.26,.07,.31,.07,1.71,.11,4.07-1.1,5.66-3.29,1.54-2.14,2.3-5.27,2.39-6.77,.06-1.04-.38-1.43-1.31-1.49-1.3-.08-3.46,.52-5.44,2.11-2.46,1.93-4.73,4.18-6.76,6.71-1.46,1.83-2.42,4.64-3.06,5.74l-2.99,5.43c-.12,.2-.79,.99-.96,1.14l-4.36,8.37c-.23,.35-.81,.52-1.23,.5-.83-.05-1.21-.54-1.17-1.27,.18-3,3.24-6.2,4.43-8.62,2.61-5.14,4.87-10.62,7.22-15.89,.05-.05,.12-.2,.18-.46-.7,1.15-1.03,1.55-1.38,2.2-.58,1-1.35,1.74-1.68,1.92-.38,.24-1.15,.14-1.43-.4-.23-.48,.46-1.64,.64-1.94l.45-.54,.96-1.19c.9-1.09,.75-1.15,2.28-3.24,1.19-1.64,2.23-3.24,3.34-4.42,.46-.7,1.06-1.18,1.68-1.14,1.04,.06,1.16,.64,1.1,1.58-.1,1.71-1.61,4.27-2.49,5.78-.18,.46-1.35,2.47-1.63,2.87l-.02,.26c1.19-.71,3.18-3.45,5.33-5.5,2.21-2.1,4.59-2.73,7.65-2.55,1.4,.09,2.68,2.04,2.76,3.29,.13,2.04-.19,4.72-1.08,6.64-1.49,3.13-3.63,4.92-6.35,6.06l.29,.33s.91,.42,2.1,.49c1.71,.1,4.47-2.43,5.46-3.36,.88-.83,1.43-2.04,3.05-3.92,.39-.5,.34-.45,.8-.42,.67,.04,.75,.46,.72,.98-.01,.21-.03,.47-.09,.67Z"/><path class="cls-15" d="M452.16,115.07c-1.98,4.35-4.8,7.09-7.01,9.14-1.66,1.56-4.09,3.86-5.91,4.73-.23,.3-.92,1.5-1.05,1.86-1.06,2.9-1.17,3.05-1,5.19,.13,1.26,1.76,1.88,2.59,1.93,.62,.04,1.3,.08,1.87,.06,1.49-.53,3.95-2.57,4.72-3.25,.88-.83,1.43-2.04,3.05-3.92,.39-.5,.34-.45,.81-.42,.67,.04,.75,.46,.72,.98-.01,.21-.03,.47-.09,.67-.45,1.43-1.55,3.28-2.88,4.5-1.65,1.51-4.98,3.96-7.42,3.86h-.15c-1.66-.11-5.29-1.06-5.69-3.06-.47-2.53-.04-4.37,1.02-7.32,2.06-5.65,4.04-10.67,6.36-16.25,.29-.55,2.21-4.6,2.45-5.21,1.1-2.59,3.67-8.1,7.14-7.88,1.76,.11,3.17,2.54,3.07,4.25-.22,3.57-1.22,7.1-2.6,10.14Zm-.73-11.75c-1.55-.1-3.35,2.86-4.79,6-1.08,2.33-1.36,3.45-1.9,4.67-.61,1.47-4.49,9.61-4.59,11.26,2.71-1.81,7.41-7.14,10.08-12.49,1.01-2.07,2.14-5.23,2.28-7.5,.05-.78,.01-1.87-1.08-1.94Z"/><path class="cls-15" d="M466.19,132.99c-.45,1.43-1.55,3.29-2.83,4.51-2.48,2.29-5.45,3.98-8.87,3.77-1.55-.1-3.5-.53-4.84-1.65-1.44-1.13-2.26-3.05-2.15-4.71,.21-3.37,1.36-6.89,3.98-9.84,1.68-1.92,4.06-3.44,6.91-3.27,1.61,.1,3.14,1.44,3.04,3.05-.12,1.87-.95,3.53-2.23,4.91-1.28,1.33-2.96,2.37-4.71,3.04-.91,.36-3.23,.89-4.36,1.6-.29,.5-.1,.77-.08,1.35,.01,.62,.77,1.82,1.58,2.28,.1,.06,1.24,1.01,3,1.12,2.77-.14,5.09-1.56,7.13-3.46,.88-.83,1.43-2.04,3-3.92,.45-.49,.34-.45,.86-.42,.62,.04,.75,.46,.72,.98-.01,.21-.08,.46-.15,.67Zm-8.15-8.77c-1.67,.1-3.22,.84-4.38,1.91-1.43,1.32-2.7,3.32-2.8,4.98-.02,.26-.41,.7-.1,.83,1.85-.56,3.68-1.44,4.92-2.25,1.36-.9,2.42-2.14,3.37-4.06,.05-.05,.07-.26,.07-.31,.02-.36-.6-1.18-1.08-1.11Z"/></g><g><path class="cls-15" d="M911.19,464.96c-.59,2.78-1.25,6.1-1.77,8.98-.56,3.3-.67,6.38-1.72,9.6-.39,1.12-1.64,4.69-1.89,5.1-.15,.34-1.65,3.01-1.82,3.3l-.21,.67-7.08,9.6c-1.59,2.11-4.49,4.33-7.15,4.77-3.69,.61-8.93-.25-9.65-4.55-.49-2.92,1.68-8.86,5.16-9.44,1.02-.17,2.54,1.37,2.7,2.29,.07,.41-.16,.92-.62,1-.62,.1-1.18-.44-1.84-.32-2.36,.39-3.4,4.25-3.07,6.25,.16,.97,.7,1.36,1.57,1.84,1.95,.36,3.17,.68,4.8,.41,2.15-.36,4.39-1.73,5.8-3.39,1.11-1.24,5.64-7.52,6.62-8.89,2.42-3.51,4.05-7.94,5.22-11.97,.39-1.43,.46-4.5,.55-5.51,.13-1.44,1.05-2.86,.8-4.34-.07-.41-.31-.58-.72-.51-2.2,.37-4.1,2.26-6.71,2.7-4.61,.77-11.24-.81-16.1-.95-.11-.03-.82-.18-.92-.16-.84-.02-3.17-.05-3.32-.03-2.51,.42-7.77,3.93-7.27,6.9l.73,4.4c.18,1.08,3.47,1.58,4.39,1.43,2.41-.4,3.14-4.52,3.87-6.12,.15-.39,.26-.36,.67-.43,.72-.12,1.13,.44,1.25,1.16,.25,1.49-.84,3.46-1.35,4.54-.91,2.1-2.21,3.16-4.46,3.53-4.46,.74-6.76-2.35-7.4-6.19-.99-5.94,3.48-10.68,9.17-11.63,6.96-1.16,13.65,1.99,20.61,.83,4.05-.67,6.9-2.83,9.46-6.1l.41-.07c.67-.11,1.16,.33,1.27,1,0,.05,0,.26,0,.32Z"/><path class="cls-15" d="M934.67,490.57c-.12,1.49-.78,3.55-1.79,5.04-1.26,1.89-4.07,4.94-6.48,5.34-4.92,.82-5.1-2.2-4.4-5.9,.48-2.5,.79-5.03,1.49-7.46l-.05-.31c-.03-.15-.09-.56-.4-.51-.1,.02-.48,.29-.52,.35-1.14,1.35-2.68,2.87-3.64,4.4-1.25,2-2.75,4.35-3.55,6.49-.8,2.13-.73,2.91-1.42,5.08-.79,.29-1.6,.85-2.47,.99-.46,.08-.7-.09-.78-.61,0-.05,.96-3.69,1.79-7.56,.88-4.2,1.49-7.77,1.62-8.58-.38-1.67,.76-1.76,1-3.17,.09-.7,.79-5.08,.87-5.83,.33-2.79,2.48-16.09,6.83-16.82,2.46-.41,3.17,1.95,3.49,3.89,.86,5.17-2.62,13.65-5.96,17.62-.84,.98-2.28,2.43-3.38,3.4-.26,1.31-1.49,3.99-1.14,6.08l1.08-2.02c1.43-2.13,4.81-7.43,7.37-7.86,.36-.06,1.94-.38,2.12,.38,.73,3.46-1.72,9.23-2.12,11.93-.4,2.65-.51,4.19,2.2,3.74,1.23-.21,3.78-3.53,4.46-4.48,.67-1.01,.93-2.31,2.09-4.51,.27-.57,.23-.51,.69-.59,.67-.11,.84,.28,.92,.79,.03,.21,.08,.46,.06,.67Zm-11.77-25.77c-2.1,.35-5.62,16.15-5.35,17.78,1.49-.25,3.37-4.4,3.83-5.74,.73-2.28,2.96-8.12,2.5-10.89-.08-.46-.26-1.27-.98-1.15Z"/><path class="cls-15" d="M955.82,487.05c-.12,1.49-.78,3.55-1.79,5.04-1.26,1.89-4.02,4.93-6.43,5.33h-.05c-2.05,.35-3.59-.71-4.39-3.63-.16-.03-1.47,1.93-1.56,2-1.49,1.19-2.14,3.25-4.96,3.72-1.33,.22-2.7-1.02-3.55-1.72l-.26-1.59c-.47-2.82-.2-6.23,.77-9.28,1.4-4.23,4.22-7.81,8.52-8.53,2.46-.41,2.93,3.04,3.62,4.66,.56-1.36,1.3-1.37,1.9-1.21,.55,.17,.46,1.19,.2,1.81-.81,1.77-2.68,6.34-2.54,8.79,.09,1.83,1.01,2.94,2.29,2.72,1.23-.21,3.78-3.53,4.46-4.48,.67-1.01,.98-2.32,2.09-4.51,.27-.57,.23-.51,.74-.6,.61-.1,.84,.28,.92,.79,.03,.21,.03,.47,0,.68Zm-14.36-5.92c-2.41,.4-4.23,3.34-5.33,6.57-.98,2.95-1.39,6.18-1.07,8.12,.07,.41,.09,.56,.52,.91l.77-.13c1.08-.18,2.16-.94,2.81-1.78,.52-.67,2.98-4.55,3.38-5.3,.74-1.86,1-4.11,.68-6.01-.13-.77-.49-2.6-1.77-2.39Z"/><path class="cls-15" d="M979.12,483.21c-.12,1.49-.77,3.6-1.78,5.09-.93,1.37-1.85,2.78-3.14,3.89-1.05,.96-2.3,1.65-3.79,1.89-.61,.1-1.43,.24-1.99,.07-1.27-.37-1.53-1.9-1.72-3.03-.31-1.84,.48-3.45,.99-5.11,.8-2.45,1.74-5.97,1.88-8.31-.21,.03-.47,.03-.47,.03-2.2,.37-4.05,5.36-5.02,7.15-.08,.17-.28,.84-.59,1.52-.3,.73-.64,1.53-.9,1.89-.3,.42-.61,1.1-.91,1.83l-.97,2.37c-.65,1.48-1.35,2.96-2.12,3.09-.72,.12-1.04-.25-1.36-.88,.51-3.87,1.84-7.57,2.9-11.32,.2-.67,.43-1.54,.61-2.36,.21-1.93,.14-2.97-.19-3.02-.59-.06-1.9,2.84-2.59,4.64-.3,.74-1.02,3.01-1.33,4.01-.29,1.1-.71,1.43-.98,1.69-.32,.32-1.06,.6-1.45,.14-.38-.41-.31-1.53-.21-1.86l.26-.62c.16-.29,.19-.45,.5-1.13,.63-1.26,.75-1.49,1.5-3.93,.72-2.33,2.38-4.98,4.12-5.27,1.74-.29,2.3,.88,2.62,1.83,.29,.79,.21,1.6,.15,2.13l-.38,3.38c1.54-3.68,4.22-7.54,7.24-8.68,1.31,.26,1.9,1.31,2.1,2.49l.05,.31c-.49,3.71-1.42,7.29-2.22,10.05-.31,1-.83,2.3-.66,3.32,.06,.36,.03,.84,.44,1.03,.11,.03,.67-.06,.83-.08,.51-.08,1.05-.33,1.53-.62,1.2-.99,2.54-2.74,3-3.45,.38-.59,.66-1.42,.86-2.09,.44-1.13,.83-2.3,1.44-3.35,.16-.29,.32-.26,.63-.32,.77-.13,1,.31,1.09,.87,.03,.21,.03,.47,.02,.73Z"/><path class="cls-15" d="M1000.29,483c-1.71,2.97-2.65,4.92-6.28,6.52-.54,.25-1.19,.41-1.76,.5-.56,.09-.82,.14-1.37,.02-1.41-.24-2.72-2.12-3.02-3.92-.3-1.79,.05-2.22-.26-4.06-.23-1.38-2.6-.78-2.9-2.57-.17-1.02,.91-1.47,1.73-1.6,.92-.15,1.79,.33,2.71,.18,1.74-.29,3.23-2.38,2.95-4.07-.12-.72-.53-1.28-1.09-1.19-.21,.03-2.38,1.19-2.61,1.38-2.69,2.18-5.42,3.48-7.64,8.12-.78,1.66-.88,5.46-1.98,8.33-.38,.9-.79,1.55-1.31,1.64-.36,.06-.65,.21-1.01,.27-.31,.05-.54-.07-.6-.43-.15-.87,.78-4.18,1.02-5.22,.56-2.3,2.19-11.15,1.87-13.1-.34-.47-.48-.97-.57-1.54-.14-.82,.71-1.12,1.14-1.66,.43-4.07,.73-8.28,1.48-12.3,.42-2.23,2.54-7.79,5.1-8.22,2.05-.34,2.76,2.64,3,4.13,.79,4.71-1.19,11.51-3.97,15.34-.95,1.26-2.15,2.25-3.29,3.34-.24,.78-1.31,5.11-1.28,5.9,2.32-4.39,7.83-7.99,10.85-8.49,1.38-.23,2.9,.67,3.1,1.85,.7,4.2-1.37,6.96-5.29,8.04,.49,.39,.68,.94,.78,1.5,.26,1.59-.03,1.74,.23,3.28,.29,1.74,.15,3.13,2.46,2.75,2.61-.44,4.46-3.58,5.72-6.11,.55-1.14,1.03-2.33,1.4-2.97,.25-.41,.44-.5,.75-.55,.56-.09,.88,.22,.93,.84,.04,.84-.76,3.65-1.01,4.06Zm-14.4-29.91c-2.66,.44-4.21,13.91-3.79,16.42,.54-.25,1.13-1.45,1.46-1.98,2.14-3.57,3-7.29,3.1-11.41,.03-.74,.13-1.44,0-2.16-.07-.41-.26-.96-.78-.87Z"/><path class="cls-15" d="M1041.28,472.86c-.29,3-2.25,5.74-4.05,7.57-2.57,2.59-5.75,4.01-9.15,5.1-.1,.02-.27,.26-.26,.31-1.97,5.54-4.5,15.01-11.26,16.14-1.02,.17-1.54-.06-2.35-.82-.04-.26-.28-1.37-.32-1.58-1.73-10.39,13.57-12.68,12.53-18.93l-.03-.15c-.06-.04-.3-.21-.35-.2,0-.05-.11-.03-.16-.03,0,0-.1,.02-.14,.08-1.35,1.7-2.95,3.49-5.2,3.87l-1.02,.17c-.82-.5-2.01-1.35-2.18-2.32-.66-3.94,1.46-7.35,2.51-10.21,.28-2.42,.28-3.68-.14-3.71-.54-.07-1.84,2.83-2.59,4.64-.55,1.41-.6,3.05-1.56,3.89-.32,.26-1.09,.39-1.49-.07-.33-.42-.27-1.64-.17-1.97,.08-.17,.09-.38,.32-.63,.77-1.08,.65-1.16,1.25-2.94,.72-2.33,2.33-4.97,4.07-5.26,.97-.16,1.54,.11,1.94,.57,.73-.02,.67,.57,.74,1.3,.21,.6,.2,1.18,.17,1.66,.12,1.35-.11,2.49-.43,3.44-.23,.83-.11,.6-.46,1.34-1.04,2.28-2.46,3.88-2.02,6.49,.02,.1,.1,.61,.18,.76,.41,.25,.77,.19,1.23,.11,1.18-.2,1.6-.53,2.66-1.71,.57-.67,2.96-4.02,3.42-4.73,.21-.35,1.78-3.56,2.24-4.58,.66-1.42,.79-4.4,2.69-4.71,.87-.14,1.18,.44,1.31,1.2,.29,1.74-1.47,2.88-1.4,4.55l-2.72,10.19c-.1,.33,.62,.21,.67,.21,1.18-.2,3.94-1.29,4.77-2,2.73-2.25,3.81-4.63,4.8-7.85,.18-.5,1.72-1.08,1.87-.15,0,.05,.09,.88,.11,.98Zm-16.8,16.06c-.03-.21-.08-.46-.4-.51-2.76,1.78-8.89,6.01-8.18,10.26,.09,.56,.43,.98,1.04,.88,.05,0,.25-.09,.3-.1,.25-.09,1.41-.71,1.65-.85,2.47-3.2,3.61-5.81,5.65-9.36l-.05-.31Z"/><path class="cls-15" d="M1058.73,474c-.44,.81-2.16,2.2-3.27,2.49-.96,.26-2.76,.14-3.27-.03-.55-.17-1.07-.4-1.48-.7-.22,.25-.14,.08-.26,.62-.69,1.22-.62,1-1.69,2.18-1.43,1.5-2.59,2.75-4.8,3.11s-3.38-1.02-4.45-2.68l-.26-1.59c-.45-2.71,.12-6.86,1.7-10.33,1.47-3.19,3.76-5.89,6.93-6.42,3.74-.62,4.86,3.24,5.33,6.06,.37,2.2-.79,5.03-1.31,6.32-.1,.33,.7,.73,.93,.85,.34,.15,1.66,.46,2.21,.32,1.21-.31,1.39-.81,2.18-2.1,.57-.99,.49-1.5,.82-2.35,.11-.28,.55-1.14,.87-1.41,.23-.2,.61-.42,1.11,.03,.25,.22,.31,1.21,.25,1.48-.5,2.35-.6,2.42-1.52,4.15Zm-11,0c-1.29-1.1-1.83-2.12-2.54-3.58-.33-.74-.62-3.11-.52-4.39-.67,.74-.96,1.16-1.44,2.08-1.47,2.88-2.2,6.37-1.82,8.67,.1,.62,.36,2.78,1.43,2.6,1.84-.31,3.25-1.33,4.28-2.76,.73-.96,.88-1.04,1.35-2.01l-.73-.61Zm2.77-7.99c-.18-.76-.67-2.42-.78-2.45-.89-.59-.44-.72-1.31-.57-.36,.06-.71,.49-1.05,.65-.63,.95-.86,3.04-.2,5.14,.44,1.4,1.38,2.61,2.35,3.4,.06-.27,.52-1.3,.53-1.56,.21-.98,.79-2.82,.62-3.84-.03-.15-.06-.67-.18-.76Z"/><path class="cls-15" d="M1078.29,466.64c-.12,1.49-.78,3.55-1.74,5.03-1.14,1.66-3.23,4.01-5.01,4.99-.44,.18-1.18,.51-1.48,.56-.87,.15-2.07-.39-2.44-1.38-.28-.74-.31-2.16-.37-3.46-.21,.03-.14-.56-.13-.77-.49,2.08-2.09,6.4-4.51,6.75-1.13,.19-2.62,.07-3.48-1-1-1.25-1.67-3.4-1.82-4.27-.15-.92,.22-4.04,.17-4.34,.32-.95,.28-2.42,.26-3.15,0-1.31,1.33-5.91,2.46-6.09,.56-.09,.98,.21,1.08,.82l.06,.36c-.29,2.68-.51,3.24-.93,5.15-.38,1.85-.84,4.46-.62,7,.12,1.35,.64,1.95,1.09,2.76,.3,.53,.91,.43,1.42,.34,1.03-.17,2.37-3.76,3.33-6.55,.57-1.62,1.02-3.06,1.18-3.67,.78-2.92,.43-5.02,2.52-7.31,.05,0,.3-.1,.4-.12,.67-.11,.99,.26,1.09,.87,.14,.82,.1,.3-.08,1.12-.56,2.36-1.25,4.52-1.53,7.57-.2,1.98-.04,4.16,.22,5.75,.03,.2,.21,.91,.23,1.07l.13,.14c.26-.04,.53,.02,.82-.14,1-.64,3.27-3.44,3.9-4.39,.67-1.01,.98-2.32,2.09-4.51,.32-.58,.23-.51,.74-.6,.61-.1,.84,.28,.92,.79,.03,.21,.03,.47,0,.68Z"/><path class="cls-15" d="M1110.07,462.18c-1.23,3.68-6.34,6.48-9.68,7.93-2.85,1.21-4.04,1.04-6.38,1.8-.15,.03-1.63,.64-1.78,.72-1.91,.84-1.02,14.11-2.66,17.81-.31,.68-1.01,1.54-1.52,1.62-.72,.12-1.83-.27-1.82-1.12,.08-3.91,1.93-13.69,2.28-17.59-.64-.68-1.62-.57-2.37-2.55-.26-.59,.26-1.57,.94-1.63,.72-.12,1.43-.55,2.15-.67,.97-.16,.69-1.22,.89-1.94,.38-1.85,1.69-7.54,1.86-8.41,.32-1.26,.6-2.68,.94-4.16,.79-3.76,1.71-8.02,2.97-11.86,.96-3.06,2.33-5.6,3.52-7.95,.9-1.89,1.69-3.12,4.18-2.38,1.27,.37,1.89,2.79,2.12,3.86,.21,.96-.04,4.16-.23,5.25-.66,4.27-1.24,6.78-3.27,10.7-.96,1.84-3.45,6.15-3.88,6.7-1.55,2.1-3.27,4.39-4.77,5.48-.11,.6-.24,.78-.45,1.71-.09,.38-.36,2.58-.42,2.86,0,0-.02,.21,.05,.31,.09,.56,.51,.54,1.02,.46,1.18-.2,3.54-.85,5.44-1.48,4.35-1.36,6.08-3.64,9.06-6.88,.4-.44,.43-.91,1.13-.82,.64,.05,.59,.38,.79,.92,.14,.19-.03,1.11-.09,1.33Zm-7.94-27.09c-.92,.15-.97,1.42-1.73,2.87-.78,1.34-1.53,3.46-2.24,5.79-1.4,4.55-2.58,9.8-2.88,11.48-.2,1.35-.93,3.26-1.25,4.52,.71-.17,2.54-3.05,2.99-3.87,1.4-2.34,2.76-4.62,4.08-8.05,.88-2.3,1.37-4.44,1.68-6.02,.3-1.68,1.03-3.28,.63-5.05-.2-.86-.26-1.85-1.28-1.68Z"/><path class="cls-15" d="M1145.72,457.24c-.47,.66-2.08,2.98-2.44,3.35-1.27,1.53-2.61,2.96-3.94,4.45-.98,1.06-2.04,1.97-3.47,2.21-1.43,.24-3.07-.12-3.39-2.01-.28-1.69,.23-3.99,1-6.32,.77-2.34,1.81-4.62,2.64-6.6l-2.42-.02-.31,.05c-.41,.07-1.75,2.13-2.25,2.59-2.51,2.63-4.71,4.89-8.55,5.53-.62,.1-1.12-.08-1.68,.02l-.34,.48c-1.73,3.5-3.56,8.33-7.96,9.06-2.36,.39-3.61-1.14-4.76-3l-.29-1.74c-.98-5.89,2.11-17.35,9.12-18.52,3.99-.67,5.47,3.46,5.98,6.53,.28,1.69-.99,2.9-.78,4.18,.07,.41,.32,.37,.63,.32,.16,.02,.32,0,.42-.02,2.87-.48,5.29-2.67,7.3-4.85,.15-.34,.35-.74,.53-1.25-.11-.35-.25-.54-.38-.73l-.52-.6c-.38-.41-.73-.88-.82-1.44-.38-2.3,1.42-5.39,3.87-5.8,1.03-.17,2.19,.79,2.36,1.82,.21,1.23-.27,2.47-.67,3.53-.28,.84-.36,1.01-.36,1.01,0,0,1.23,.11,1.38,.09,1.33-.22,2.29-1.43,3.62-1.66,.82-.14,1.2,.54,1.3,1.15,.08,.51,0,.9-.32,1.26l-.12,.23c-.94,1.31-3.09,5.46-3.65,6.82-1.08,2.39-1.77,4.82-1.45,6.77l.07,.41c.08,.14,.21,.33,.52,.28,1.38-.23,5.59-4.98,6.61-6.15,.62-.68,1.02-1.48,1.58-2.21,.14-.13,.21-.3,.3-.42,.31-.37,.54-.56,1.05-.65,.41-.07,.9,0,1.01,.67,.08,.46-.09,.75-.38,1.17Zm-26.22-4.52c-.2-.86-.72-2.72-.88-2.75-.9-.64-.39-.46-1.31-.31-5.02,.84-8.24,10.21-7.46,14.93,.12,.72,.36,3.1,1.54,2.9,4.81-.8,6.6-6.52,7.46-10.82,.19-1.08,1.04-1.96,.85-3.09-.03-.2-.08-.78-.2-.86Zm11.99-3.84c.06,.36,.32,.32,.47,.29,.67-.11,1-1.9,.96-3.42-1.31,.69-1.65,1.8-1.42,3.13Z"/><path class="cls-15" d="M1169.31,452.89c-.51,.08-1.6,.16-2.01-.4-.25,.73-1.61,4.22-3.39,6.83-.96,1.48-1.89,3.52-3.01,3.71-.67,.11-.83-1.18-1.17-1.65-.04-.57-.96-3.89-1.15-4.39-.08-.15-.37-1.89-.32-1.95-.31-2.16-.51-3.07-.88-5.27-.22-1.65-1.12-3.24-1.72-4.98-1.1-3.45,1.51-2.94,2.01-2.44,.15,.29,.63,1.58,.67,1.83,.18,.44,.86,2.33,.83,2.44,.11,.35,.56,3.06,.63,3.47,.24,2.06,.63,3.79,1.19,5.54,.13,.45,0,1.63,.1,1.88,.02,.1,.03,.47,.04,.52,.05,0,.37,.99,.42,.93,1.17-1.19,2.32-3.75,2.76-4.62l1.1-2.87c.04-.06,.11-.6,.14-.76-.63-.95-.85-2.86-.99-4.05-.11-.98,.85-7.19,2.85-7.53,.51-.09,1.43,.03,1.76,.44,.4,1.14,.49,1.71,.61,2.74,.2,1.81-.89,5.09-1.29,6.79,.02,.1,.02,.42,.03,.47,.05,.31,.58,.96,.99,.89,2.3-.38,4.12-4.37,5.67-4.52,.51-.09,.87,.17,.96,.68,.2,1.54-5.37,6-6.8,6.24Z"/><path class="cls-15" d="M1186.43,448.62c-.12,1.49-.78,3.55-1.79,5.04-1.26,1.89-4.02,4.93-6.48,5.34-.87,.15-1.7,.23-1.95,0-1.66-.83-2.59-3.57-2.82-4.95-.83-4.97,1.83-9.57,2.97-14.07,.15-.34,.76-1.13,1.19-1.04,.38,.09,1.24,.79,1.32,1.31l.03,.15c-1.43,4.4-3.7,9.04-2.94,13.65,.09,.56,.93,2.74,1.8,2.59,.56-.09,1.11-.29,1.63-.64,1.3-1.06,2.81-3.05,3.27-3.75,.67-1.01,.98-2.32,2.09-4.51,.27-.57,.23-.51,.74-.6,.61-.1,.84,.28,.92,.79,.03,.21,.03,.47,0,.68Zm-7.3-14.1c-1.02,.17-2.2-.9-2.38-1.97-.23-1.38,1.24-2.99,2.57-3.22,1.08-.18,1.62,.26,1.8,1.33,.2,1.18-.61,3.63-1.99,3.86Z"/><path class="cls-15" d="M1200.98,446.19c-.12,1.49-.78,3.55-1.79,5.04-1.26,1.89-4.28,4.97-7.5,5.51-.77,.13-1.26,.05-1.55-.16-.91,.52-.88,.73-1.9,.9-2.25,.38-3.83-1.2-4.17-3.25-.08-.46,.15-.97,.7-1.17,2.1-.67,3.52,1.52,5.77,1.14,3.17-.53,2.69-4.71,2.19-7.68-.1-.61-2.26-4.1-3.3-4.66-.19,.14-.33,.53-.52,.98l-.55,1.41c-.12,.23-.29,.79-.5,1.45-.34,1.11-.2,1.03-.43,1.86l-.15,.39c-.34,1.11-.85,1.83-1.13,2.08-.32,.32-1.17,.56-1.56,.1-.33-.42-.27-1.64-.17-1.97l.32-.63,.67-1.37c.63-1.26,.29-1.1,1.2-3.52,.39-1.12,.79-1.92,1.22-2.78-.31-.58-1.02-1.04-1.19-2.12-.03-.15-.09-.88-.14-1.13,.74-1.23,1.89-2.89,3.37-3.14l.41-.07c.56,.22,1.71,1.08,1.83,1.8,.35,2.1-1.46,3.24-1.26,4.47l.02,.1c1.19,1.48,3.38,3.86,4.16,5.73,.43,.98,.4,3.04,.42,4.09,0,1-.08,2.01-.49,3.03,.98-1.06,1.88-2.26,2.27-2.8,.67-1.01,.93-2.31,2.09-4.51,.27-.57,.23-.51,.69-.59,.67-.11,.84,.28,.92,.79,.03,.21,.08,.46,.06,.67Zm-11.49-10.19c-.51,.08-.86,.2-.77,.76,.03,.21,.4,1.14,.45,1.13,.49-.55,.62-1.31,.53-1.88,0-.05-.11-.03-.21-.02Z"/><path class="cls-15" d="M1211.27,444.48c-.12,1.49-.78,3.55-1.79,5.04-1.26,1.89-4.02,4.93-6.48,5.34-.87,.14-1.7,.23-1.95,0-1.66-.83-2.59-3.57-2.83-4.95-.83-4.97,1.83-9.57,2.97-14.07,.15-.34,.76-1.13,1.19-1.04,.38,.09,1.24,.79,1.32,1.31l.03,.15c-1.42,4.39-3.7,9.04-2.94,13.65,.09,.56,.93,2.74,1.8,2.59,.56-.09,1.11-.29,1.63-.64,1.3-1.06,2.81-3.05,3.27-3.75,.67-1.01,.98-2.32,2.09-4.5,.27-.57,.23-.51,.74-.6,.61-.1,.84,.28,.92,.79,.03,.21,.03,.47,0,.68Zm-7.3-14.1c-1.02,.17-2.2-.9-2.38-1.97-.23-1.38,1.24-3,2.57-3.22,1.08-.18,1.62,.26,1.8,1.33,.2,1.18-.61,3.63-1.99,3.86Z"/><path class="cls-15" d="M1222.7,428.47c-.65,.21-7.57,1.31-8.18,1.47-.91,1.78-2.05,8.55-2.28,10.96-.04,.38-.6,3.36-.59,3.73,0,.05,.1,2.83,.34,4.26,.17,1.02,1.45,2.07,2.37,1.92l.1-.07c.34-.16,1.92-.48,2.01-.55,.18-.19,.53-.3,.88-.41,1.25-1,2.81-3.05,3.36-3.82,.75-1.49,1.33-3.06,2.13-4.57,.27-.57,.23-.51,.69-.59,.67-.11,.84,.28,.92,.79,.03,.21,.08,.46,.06,.67-.12,1.49-.78,3.55-1.79,5.04-.8,1.19-1.58,2.53-3.07,3.67-.86,.83-2.94,1.96-4.42,2.21-3.69,.62-5.58-1.91-6.12-5.14-.05-.31-.11-2.56-.16-2.87,.14-1.71,1.52-7.62,1.66-9.33,.1-.96,.9-4.05,1.04-5.44-.45,.13-1.94,.38-2.41,.35-.38-.04-2.49-.11-2.65-1.08-.14-.87,.99-1.32,1.6-1.48,1.52-.36,3-.29,4.04-.67,.04-.06,1.11-3.13,1.4-4.23l.85-3.72,1-3.17c.21-.61,.99-3.53,2.22-3.74,.56-.09,1.4,.19,1.51,.85,.2,1.18-.92,3-1.26,4.11-.1,.33-2.7,9.34-2.7,9.34,1.18-.15,5.63-.94,7.89-1.31,.46-.08,1.3,.57,1.37,.98,.14,.87-1.2,1.62-1.8,1.83Z"/><path class="cls-15" d="M1234.82,440.55c-.12,1.49-.78,3.55-1.79,5.04-1.26,1.89-4.02,4.93-6.48,5.34-.87,.14-1.7,.23-1.95,0-1.66-.83-2.59-3.57-2.82-4.95-.83-4.97,1.83-9.57,2.97-14.07,.15-.34,.76-1.13,1.19-1.04,.38,.09,1.24,.79,1.32,1.31l.03,.15c-1.43,4.39-3.7,9.04-2.94,13.65,.09,.56,.93,2.74,1.8,2.59,.56-.09,1.11-.29,1.63-.64,1.3-1.06,2.81-3.05,3.27-3.75,.67-1.01,.98-2.32,2.09-4.5,.27-.57,.23-.51,.74-.6,.62-.1,.84,.28,.92,.79,.03,.21,.03,.47,0,.68Zm-7.3-14.1c-1.02,.17-2.2-.9-2.38-1.97-.23-1.38,1.24-3,2.57-3.22,1.07-.18,1.62,.26,1.8,1.33,.2,1.18-.61,3.63-1.99,3.86Z"/><path class="cls-15" d="M1257.87,436.76c-.12,1.49-.77,3.6-1.78,5.08-.93,1.37-1.85,2.78-3.14,3.89-1.05,.96-2.3,1.65-3.79,1.89-.61,.1-1.43,.24-1.99,.07-1.27-.37-1.53-1.9-1.72-3.03-.31-1.84,.48-3.45,.99-5.11,.8-2.45,1.74-5.97,1.88-8.31-.21,.03-.47,.03-.47,.03-2.2,.37-4.05,5.36-5.02,7.15-.08,.17-.28,.84-.59,1.52-.3,.73-.64,1.53-.9,1.89-.3,.42-.61,1.1-.91,1.83l-.97,2.37c-.65,1.48-1.35,2.96-2.12,3.09-.72,.12-1.04-.25-1.36-.88,.51-3.87,1.84-7.57,2.9-11.32,.2-.67,.43-1.54,.61-2.36,.21-1.93,.14-2.97-.19-3.02-.59-.06-1.9,2.84-2.59,4.64-.3,.73-1.02,3.01-1.33,4.01-.29,1.1-.71,1.43-.98,1.69-.32,.32-1.06,.6-1.45,.14-.38-.41-.31-1.53-.21-1.86l.26-.62c.16-.29,.19-.45,.5-1.14,.63-1.26,.75-1.49,1.5-3.93,.72-2.33,2.38-4.98,4.12-5.27,1.74-.29,2.3,.88,2.62,1.83,.29,.79,.21,1.6,.15,2.13l-.38,3.38c1.54-3.68,4.22-7.54,7.24-8.68,1.31,.26,1.9,1.31,2.1,2.49l.05,.31c-.49,3.71-1.42,7.29-2.22,10.05-.31,1-.83,2.3-.66,3.32,.06,.36,.03,.84,.44,1.03,.11,.03,.67-.06,.83-.09,.51-.08,1.05-.33,1.53-.62,1.2-.99,2.54-2.74,3-3.45,.38-.59,.66-1.42,.86-2.09,.44-1.13,.83-2.3,1.44-3.35,.16-.29,.32-.26,.63-.32,.77-.13,1,.31,1.09,.87,.03,.21,.03,.47,.02,.74Z"/><path class="cls-15" d="M1276.81,433.56c-.38,4.96-5.39,10-9.92,11.55-.72,2.65-1.04,5.75-1.83,8.25-.1,.33-.26,.67-.42,.96-2.08,4.24-2.81,8.73-8.24,9.63-2.05,.34-4.6-2.02-4.46-4.68,.14-2.65,2.72-5.77,4.44-7.48,1.76-1.77,3.63-3.5,5.44-5.27l2.09-1.98c.21-.35,.44-.81,.38-1.22-.08-.46-.31-.9-.38-1.36-1.2,1.67-2.79,3.46-4.63,3.77-3.02,.5-3.7-1.38-4.13-3.94-.44-2.61,.34-7.42,1.73-10.45,1.57-3.52,4.22-6.55,7.66-7.12,3.79-.63,4.53,4.14,4.98,6.85,.5,3.02-2.42,7.25-2.03,10.86,.34-.16,.75-.23,1.11-.29,1.23-.21,3.75-3.41,4.46-4.48,.88-1.36,1.33-3.06,2.09-4.51,.24-.46,.18-.5,.69-.59,.62-.1,.83,.23,.92,.79,.03,.21,.08,.46,.06,.67Zm-22.31,25.61c.2,1.18,1.08,2.4,2.31,2.19,2.92-.49,6.01-8.16,6.17-10.34,0-.27,.51-2.61,.15-2.6-1.88,1.68-9.06,8.19-8.63,10.75Zm9.85-32.17c-2.05,.34-3.88,2.91-5.09,5.79-1.05,2.54-1.83,6.72-1.55,8.36,.18,1.07,.09,2.14,1.53,1.9,1.95-.32,4.37-3.47,5.63-5.99,1.31-2.59,1.64-5.96,1.33-7.8-.17-1.02-.47-2.5-1.85-2.27Z"/><path class="cls-15" d="M1281.65,443.38c-1.5,.46-2.76-.75-3.09-2.12-.38-1.62,.6-3.68,2.24-4.22,1.25-.37,3.14,.84,3.4,2.12,.43,1.61-.91,3.68-2.56,4.22Zm11.19-37.39c-1.65,2.43-2.49,4.31-3.51,7.06l-1.12,3.08c-.28,1.15-3.48,15.1-4.88,15.55-.44,.18-.96-.05-1.09-.55-.41-1.83,2.79-12.94,3.29-14.7,1.71-5.86,3.22-9.43,6.58-14.83,.22-.25,1.27-1.21,1.5-1.41,0-.05,.24-.15,.29-.15,.7-.22,1.04,.25,1.7,.72,0,0,.07,.09,.08,.14,.38,1.67-2.03,3.92-2.83,5.1Z"/></g><path class="cls-15" d="M401.76,322.6c-.47-.97-1.47-1.68-2.82-1.34-.96,.24-1.92,.5-2.87,.77-.45-.03-.9-.06-1.35-.09-11.28-8.5-19.05-21.8-20.86-35.82-.17-1.34-1.03-2.5-2.5-2.5-1.22,0-2.67,1.15-2.5,2.5,1.74,13.44,7.99,25.83,17.59,35.19-16.46-1.36-32.87-3.34-49.08-6.54-19.61-3.87-38.97-9.48-57.18-17.79-16.65-7.6-32.43-17.34-46.09-29.57-13.84-12.39-25.31-27.22-33.24-44.06-7.81-16.57-12.01-34.97-11.22-53.32,.1-2.34,.29-4.67,.54-7,.15-1.34-1.26-2.5-2.5-2.5-1.47,0-2.35,1.15-2.5,2.5-2.09,18.91,1.14,38.21,8.28,55.79,7.2,17.72,18.12,33.68,31.74,47.09,13.46,13.24,29.28,23.99,46.15,32.38,18.01,8.95,37.2,15.27,56.81,19.65,18.47,4.13,37.28,6.59,56.14,8.2-9.48,3.92-18.39,9.17-26.45,15.57-3.41,2.71-6.64,5.63-9.69,8.73-2.26,2.3,1.28,5.84,3.54,3.54,10.3-10.48,22.83-18.79,36.55-24.07,2.77-1.06,5.58-2,8.42-2.83,1.39,.09,2.78,.2,4.17,.28,2.85,.18,3.16-3.74,.95-4.76Z"/><path class="cls-15" d="M1073.23,400.33c-7.68,6.86-14.64,14.49-20.8,22.74-2.28-22.16-9.85-43.73-22-62.42-13.03-20.03-31.26-36.46-52.45-47.5-11.84-6.17-24.54-10.68-37.64-13.25-1.32-.26-2.7,.38-3.08,1.75-.34,1.23,.41,2.81,1.75,3.08,22.47,4.41,43.76,14.56,61.28,29.32,18.01,15.17,31.8,35.01,39.79,57.16,4.44,12.29,7.12,25.18,7.86,38.22-.08,.11-.16,.23-.23,.34-9.9-4.22-19.79-8.45-29.69-12.67-1.24-.53-2.68-.37-3.42,.9-.61,1.05-.35,2.89,.9,3.42,9.97,4.26,19.95,8.52,29.92,12.77,.86,.37,1.81,.39,2.56-.04,1.07,.55,2.5,.47,3.35-.82,.18-.28,.38-.55,.56-.82,.58-.3,1.01-.84,1.11-1.62,6.81-9.92,14.79-18.98,23.78-27,2.41-2.15-1.14-5.67-3.54-3.54Z"/></g></g></svg>