<?xml version="1.0" encoding="UTF-8"?><svg xmlns="http://www.w3.org/2000/svg" viewBox="0 0 1366 70.86"><defs><style>.cls-1{fill:#fff;}.cls-2{fill:#4f4840;}.cls-3{isolation:isolate;}.cls-4{mix-blend-mode:screen;opacity:.18;}.cls-5{fill:#d2dbdd;}</style></defs><g class="cls-3"><g id="Layer_1"><path class="cls-5" d="M1353.11,3.89c-7.12,0-12.89,5.74-12.89,12.83,0-7.09-5.77-12.83-12.89-12.83s-12.89,5.74-12.89,12.83c0-7.09-5.77-12.83-12.89-12.83s-12.89,5.74-12.89,12.83c0-7.09-5.77-12.83-12.89-12.83s-12.89,5.74-12.89,12.83c0-7.09-5.77-12.83-12.89-12.83s-12.89,5.74-12.89,12.83c0-7.09-5.77-12.83-12.89-12.83s-12.89,5.74-12.89,12.83c0-7.09-5.77-12.83-12.89-12.83s-12.89,5.74-12.89,12.83c0-7.09-5.77-12.83-12.89-12.83s-12.89,5.74-12.89,12.83c0-7.09-5.77-12.83-12.89-12.83s-12.89,5.74-12.89,12.83c0-7.09-5.77-12.83-12.89-12.83s-12.89,5.74-12.89,12.83c0-7.09-5.77-12.83-12.89-12.83s-12.89,5.74-12.89,12.83c0-7.09-5.77-12.83-12.89-12.83s-12.89,5.74-12.89,12.83c0-7.09-5.77-12.83-12.89-12.83s-12.89,5.74-12.89,12.83c0-7.09-5.77-12.83-12.89-12.83s-12.89,5.74-12.89,12.83c0-7.09-5.77-12.83-12.89-12.83s-12.89,5.74-12.89,12.83c0-7.09-5.77-12.83-12.89-12.83s-12.89,5.74-12.89,12.83c0-7.09-5.77-12.83-12.89-12.83s-12.89,5.74-12.89,12.83c0-7.09-5.77-12.83-12.89-12.83s-12.89,5.74-12.89,12.83c0-7.09-5.77-12.83-12.89-12.83s-12.89,5.74-12.89,12.83c0-7.09-5.77-12.83-12.89-12.83s-12.89,5.74-12.89,12.83c0-7.09-5.77-12.83-12.89-12.83s-12.89,5.74-12.89,12.83c0-7.09-5.77-12.83-12.89-12.83s-12.89,5.74-12.89,12.83c0-7.09-5.77-12.83-12.89-12.83s-12.89,5.74-12.89,12.83c0-7.09-5.77-12.83-12.89-12.83s-12.89,5.74-12.89,12.83c0-7.09-5.77-12.83-12.89-12.83s-12.89,5.74-12.89,12.83c0-7.09-5.77-12.83-12.89-12.83s-12.89,5.74-12.89,12.83c0-7.09-5.77-12.83-12.89-12.83s-12.89,5.74-12.89,12.83c0-7.09-5.77-12.83-12.89-12.83s-12.89,5.74-12.89,12.83c0-7.09-5.77-12.83-12.89-12.83s-12.89,5.74-12.89,12.83c0-7.09-5.77-12.83-12.89-12.83s-12.89,5.74-12.89,12.83c0-7.09-5.77-12.83-12.89-12.83s-12.89,5.74-12.89,12.83c0-7.09-5.77-12.83-12.89-12.83s-12.89,5.74-12.89,12.83c0-7.09-5.77-12.83-12.89-12.83s-12.89,5.74-12.89,12.83c0-7.09-5.77-12.83-12.89-12.83s-12.89,5.74-12.89,12.83c0-7.09-5.77-12.83-12.89-12.83s-12.89,5.74-12.89,12.83c0-7.09-5.77-12.83-12.89-12.83s-12.89,5.74-12.89,12.83c0-7.09-5.77-12.83-12.89-12.83s-12.89,5.74-12.89,12.83c0-7.09-5.77-12.83-12.89-12.83s-12.89,5.74-12.89,12.83c0-7.09-5.77-12.83-12.89-12.83s-12.89,5.74-12.89,12.83c0-7.09-5.77-12.83-12.89-12.83s-12.89,5.74-12.89,12.83c0-7.09-5.77-12.83-12.89-12.83s-12.89,5.74-12.89,12.83c0-7.09-5.77-12.83-12.89-12.83s-12.89,5.74-12.89,12.83c0-7.09-5.77-12.83-12.89-12.83s-12.89,5.74-12.89,12.83c0-7.09-5.77-12.83-12.89-12.83s-12.89,5.74-12.89,12.83c0-7.09-5.77-12.83-12.89-12.83s-12.89,5.74-12.89,12.83c0-7.09-5.77-12.83-12.89-12.83s-12.89,5.74-12.89,12.83c0-7.09-5.77-12.83-12.89-12.83s-12.89,5.74-12.89,12.83c0-7.09-5.77-12.83-12.89-12.83s-12.89,5.74-12.89,12.83c0-7.09-5.77-12.83-12.89-12.83s-12.89,5.74-12.89,12.83c0-7.09-5.77-12.83-12.89-12.83s-12.89,5.74-12.89,12.83c0-7.09-5.77-12.83-12.89-12.83s-12.89,5.74-12.89,12.83c0-7.09-5.77-12.83-12.89-12.83s-12.89,5.74-12.89,12.83c0-7.09-5.77-12.83-12.89-12.83S0,9.64,0,16.72v54.13H1366V16.72c0-7.09-5.77-12.83-12.89-12.83Z"/><g><path class="cls-2" d="M609.5,44.11c-.58,0-1.08-.15-1.51-.45s-.79-.7-1.08-1.21c-.29-.51-.5-1.08-.64-1.72-.14-.63-.21-1.28-.21-1.95s.07-1.31,.21-1.95c.14-.63,.35-1.21,.64-1.71,.29-.51,.65-.91,1.08-1.21s.93-.45,1.51-.45,1.08,.15,1.51,.45c.43,.3,.79,.7,1.08,1.21,.29,.51,.5,1.08,.64,1.71,.14,.63,.21,1.28,.21,1.95s-.07,1.31-.21,1.95c-.14,.63-.35,1.21-.64,1.72-.29,.51-.65,.91-1.08,1.21-.43,.3-.93,.45-1.51,.45Zm0-.39c.5,0,.94-.14,1.32-.42,.38-.28,.69-.66,.94-1.13s.44-1,.57-1.59,.19-1.19,.19-1.81-.06-1.21-.19-1.8c-.13-.58-.31-1.11-.57-1.58-.25-.47-.57-.84-.94-1.12-.38-.27-.82-.41-1.32-.41s-.94,.14-1.32,.41c-.38,.28-.69,.65-.94,1.12-.25,.47-.44,1-.57,1.58-.13,.58-.19,1.18-.19,1.8s.06,1.22,.19,1.81,.31,1.12,.57,1.59,.57,.85,.94,1.13c.38,.28,.82,.42,1.32,.42Zm-.03-1.92c-.35,0-.66-.11-.92-.33-.26-.22-.46-.51-.61-.86-.15-.35-.25-.75-.3-1.18-.05-.43-.05-.86,0-1.29,.05-.43,.15-.82,.31-1.18,.15-.35,.36-.64,.61-.86,.25-.22,.56-.33,.91-.33,.26,0,.48,.06,.67,.18,.18,.12,.33,.27,.43,.44,.11,.17,.18,.34,.2,.51h.11v-.99h.32v2.55h-.53v-.32c0-.61-.1-1.08-.29-1.41-.19-.34-.47-.5-.85-.5-.25,0-.45,.07-.59,.21-.14,.14-.24,.31-.3,.51-.06,.2-.1,.39-.11,.58-.01,.19-.02,.33-.02,.42v1.68c0,.09,0,.23,.02,.42s.05,.38,.11,.58c.06,.2,.16,.37,.3,.51s.34,.21,.59,.21c.37,0,.66-.17,.85-.51,.19-.34,.29-.81,.29-1.41v-.32h.53v2.55h-.32v-.99h-.11c-.03,.16-.1,.33-.2,.5-.11,.18-.25,.33-.43,.45-.18,.12-.4,.18-.67,.18Z"/><path class="cls-2" d="M621.64,44.11c-.22,0-.42-.1-.58-.31-.16-.21-.25-.56-.25-1.06,0-.45,.06-.84,.19-1.19s.28-.65,.48-.91c.19-.26,.38-.48,.58-.67,.2-.18,.36-.33,.5-.44l1.23-1.05c.16-.14,.34-.32,.55-.53,.21-.21,.39-.49,.55-.81,.15-.33,.23-.71,.23-1.16,0-.62-.17-1.12-.5-1.48s-.78-.54-1.33-.54c-.36,0-.67,.08-.92,.23-.25,.15-.45,.34-.6,.57-.15,.22-.25,.44-.29,.64l.57,.53c.07,.06,.16,.15,.28,.29,.12,.14,.18,.32,.18,.53s-.07,.37-.2,.49c-.13,.12-.28,.18-.45,.18-.21,0-.41-.1-.61-.31s-.3-.53-.3-.98c0-.42,.1-.83,.31-1.25,.21-.41,.51-.75,.9-1.02s.87-.41,1.43-.41c.5,0,.94,.11,1.32,.33,.37,.22,.66,.52,.87,.89,.21,.37,.31,.79,.31,1.26,0,.5-.11,.95-.34,1.32-.23,.38-.5,.7-.81,.97-.31,.27-.59,.5-.85,.7l-1.26,.94c-.25,.19-.5,.4-.75,.65-.25,.25-.45,.53-.62,.85s-.25,.69-.25,1.11c.09-.19,.26-.37,.5-.56,.24-.19,.52-.28,.85-.28s.6,.08,.83,.25c.22,.16,.43,.35,.62,.56s.37,.4,.56,.56c.19,.16,.4,.25,.64,.25s.4-.08,.49-.23c.09-.15,.15-.34,.17-.57,.02-.22,.03-.44,.03-.64v-1.33h.42v1.34c0,.21,0,.44-.03,.7-.02,.26-.07,.51-.15,.75-.08,.24-.21,.44-.39,.6-.18,.16-.43,.24-.76,.24-.31,0-.56-.07-.77-.21-.21-.14-.38-.31-.52-.52s-.27-.41-.4-.62-.26-.38-.4-.52c-.14-.14-.32-.21-.53-.21-.23,0-.44,.08-.62,.25-.18,.17-.3,.33-.38,.49l.36,.21c.07,.04,.16,.1,.27,.2,.12,.09,.18,.23,.18,.41,0,.14-.05,.26-.15,.36-.1,.1-.24,.15-.41,.15Z"/><path class="cls-2" d="M630.5,44.11c-.48,0-.89-.15-1.25-.45-.36-.3-.66-.7-.9-1.21-.24-.51-.42-1.08-.54-1.71-.12-.63-.18-1.28-.18-1.95s.06-1.32,.18-1.95c.12-.63,.3-1.2,.54-1.71,.24-.51,.54-.91,.9-1.21,.36-.3,.78-.45,1.25-.45s.89,.15,1.25,.45,.66,.7,.9,1.21,.42,1.08,.54,1.71,.18,1.28,.18,1.95-.06,1.32-.18,1.95c-.12,.63-.3,1.2-.54,1.71-.24,.51-.54,.91-.9,1.21s-.78,.45-1.25,.45Zm0-.52c.66,0,1.13-.24,1.41-.71,.28-.48,.42-1.12,.42-1.92v-4.34c0-.8-.14-1.44-.43-1.92-.29-.48-.75-.71-1.41-.71s-1.12,.24-1.41,.71c-.28,.48-.43,1.12-.43,1.92v4.34c0,.8,.14,1.44,.43,1.92,.28,.48,.75,.71,1.41,.71Z"/><path class="cls-2" d="M635.64,44.11c-.22,0-.42-.1-.58-.31-.16-.21-.25-.56-.25-1.06,0-.45,.06-.84,.19-1.19s.28-.65,.48-.91c.19-.26,.38-.48,.58-.67,.2-.18,.36-.33,.5-.44l1.23-1.05c.16-.14,.34-.32,.55-.53,.21-.21,.39-.49,.55-.81,.15-.33,.23-.71,.23-1.16,0-.62-.17-1.12-.5-1.48s-.78-.54-1.33-.54c-.36,0-.67,.08-.92,.23-.25,.15-.45,.34-.6,.57-.15,.22-.25,.44-.29,.64l.57,.53c.07,.06,.16,.15,.28,.29,.12,.14,.18,.32,.18,.53s-.07,.37-.2,.49c-.13,.12-.28,.18-.45,.18-.21,0-.41-.1-.61-.31s-.3-.53-.3-.98c0-.42,.1-.83,.31-1.25,.21-.41,.51-.75,.9-1.02s.87-.41,1.43-.41c.5,0,.94,.11,1.32,.33,.37,.22,.66,.52,.87,.89,.21,.37,.31,.79,.31,1.26,0,.5-.11,.95-.34,1.32-.23,.38-.5,.7-.81,.97-.31,.27-.59,.5-.85,.7l-1.26,.94c-.25,.19-.5,.4-.75,.65-.25,.25-.45,.53-.62,.85s-.25,.69-.25,1.11c.09-.19,.26-.37,.5-.56,.24-.19,.52-.28,.85-.28s.6,.08,.83,.25c.22,.16,.43,.35,.62,.56s.37,.4,.56,.56c.19,.16,.4,.25,.64,.25s.4-.08,.49-.23c.09-.15,.15-.34,.17-.57,.02-.22,.03-.44,.03-.64v-1.33h.42v1.34c0,.21,0,.44-.03,.7-.02,.26-.07,.51-.15,.75-.08,.24-.21,.44-.39,.6-.18,.16-.43,.24-.76,.24-.31,0-.56-.07-.77-.21-.21-.14-.38-.31-.52-.52s-.27-.41-.4-.62-.26-.38-.4-.52c-.14-.14-.32-.21-.53-.21-.23,0-.44,.08-.62,.25-.18,.17-.3,.33-.38,.49l.36,.21c.07,.04,.16,.1,.27,.2,.12,.09,.18,.23,.18,.41,0,.14-.05,.26-.15,.36-.1,.1-.24,.15-.41,.15Z"/><path class="cls-2" d="M642.64,44.11c-.22,0-.42-.1-.58-.31-.16-.21-.25-.56-.25-1.06,0-.45,.06-.84,.19-1.19s.28-.65,.48-.91c.19-.26,.38-.48,.58-.67,.2-.18,.36-.33,.5-.44l1.23-1.05c.16-.14,.34-.32,.55-.53,.21-.21,.39-.49,.55-.81,.15-.33,.23-.71,.23-1.16,0-.62-.17-1.12-.5-1.48s-.78-.54-1.33-.54c-.36,0-.67,.08-.92,.23-.25,.15-.45,.34-.6,.57-.15,.22-.25,.44-.29,.64l.57,.53c.07,.06,.16,.15,.28,.29,.12,.14,.18,.32,.18,.53s-.07,.37-.2,.49c-.13,.12-.28,.18-.45,.18-.21,0-.41-.1-.61-.31s-.3-.53-.3-.98c0-.42,.1-.83,.31-1.25,.21-.41,.51-.75,.9-1.02s.87-.41,1.43-.41c.5,0,.94,.11,1.32,.33,.37,.22,.66,.52,.87,.89,.21,.37,.31,.79,.31,1.26,0,.5-.11,.95-.34,1.32-.23,.38-.5,.7-.81,.97-.31,.27-.59,.5-.85,.7l-1.26,.94c-.25,.19-.5,.4-.75,.65-.25,.25-.45,.53-.62,.85s-.25,.69-.25,1.11c.09-.19,.26-.37,.5-.56,.24-.19,.52-.28,.85-.28s.6,.08,.83,.25c.22,.16,.43,.35,.62,.56s.37,.4,.56,.56c.19,.16,.4,.25,.64,.25s.4-.08,.49-.23c.09-.15,.15-.34,.17-.57,.02-.22,.03-.44,.03-.64v-1.33h.42v1.34c0,.21,0,.44-.03,.7-.02,.26-.07,.51-.15,.75-.08,.24-.21,.44-.39,.6-.18,.16-.43,.24-.76,.24-.31,0-.56-.07-.77-.21-.21-.14-.38-.31-.52-.52s-.27-.41-.4-.62-.26-.38-.4-.52c-.14-.14-.32-.21-.53-.21-.23,0-.44,.08-.62,.25-.18,.17-.3,.33-.38,.49l.36,.21c.07,.04,.16,.1,.27,.2,.12,.09,.18,.23,.18,.41,0,.14-.05,.26-.15,.36-.1,.1-.24,.15-.41,.15Z"/><path class="cls-2" d="M655.01,43.97v-.48h.84v-9.41h-.84v-.48h1.37l2.03,8.74,2.03-8.74h1.58v.48h-.9v9.41h.9v.48h-2.6v-.48h.76v-6.89l-1.71,7.36h-.43l-1.71-7.36v6.89h.9v.48h-2.21Z"/><path class="cls-2" d="M662.38,43.97v-.48h2.65v-6.36h-1.99v-.34l1.99-.18,.62-.35h.34v7.22h2.65v.48h-6.24Zm3.12-8.82c-.21,0-.4-.07-.55-.22-.15-.15-.22-.33-.22-.55s.07-.4,.22-.55c.15-.15,.33-.22,.55-.22s.4,.08,.55,.22,.22,.33,.22,.55-.07,.4-.22,.55-.33,.22-.55,.22Z"/><path class="cls-2" d="M672.77,44.11c-.55,0-1.04-.16-1.46-.48-.42-.32-.76-.77-.99-1.34-.24-.57-.36-1.23-.36-1.98s.13-1.46,.38-2.07c.25-.61,.6-1.08,1.06-1.43,.45-.35,.98-.53,1.57-.53,.41,0,.78,.08,1.12,.25s.6,.38,.8,.66c.2,.28,.29,.59,.29,.93s-.08,.57-.24,.71c-.16,.15-.34,.22-.53,.22-.15,0-.29-.05-.41-.15-.13-.1-.19-.24-.19-.41,0-.19,.07-.36,.21-.52,.14-.16,.29-.39,.46-.68-.09-.12-.26-.24-.51-.37-.25-.13-.55-.19-.9-.19-.65,0-1.16,.25-1.53,.74-.36,.49-.55,1.17-.55,2.03v1.4c0,.59,.1,1.08,.29,1.46,.19,.39,.44,.68,.75,.88s.64,.29,.99,.29c.34,0,.62-.07,.87-.22,.24-.15,.44-.33,.59-.55,.15-.22,.25-.43,.31-.62l.29,.1c-.06,.27-.18,.55-.37,.85-.19,.29-.45,.54-.77,.74-.32,.2-.71,.3-1.17,.3Z"/><path class="cls-2" d="M676.2,43.97v-.48h1.18v-9.16h-1.43v-.34l1.43-.18,.62-.35h.34v3.93h.04c.07-.17,.19-.34,.35-.51s.36-.32,.6-.44c.24-.12,.52-.18,.84-.18,.46,0,.82,.14,1.08,.43,.27,.29,.4,.7,.4,1.25v5.54h1.18v.48h-2.13v-5.94c0-.75-.33-1.12-.98-1.12-.26,0-.49,.06-.68,.18s-.35,.27-.46,.46-.2,.36-.24,.53v5.42h1.39v.48h-3.51Z"/><path class="cls-2" d="M686.84,44.11c-.57,0-1.08-.16-1.53-.48-.45-.32-.81-.77-1.06-1.35-.26-.58-.38-1.25-.38-2.02,0-.5,.06-.99,.17-1.46s.3-.9,.55-1.28c.25-.38,.56-.69,.92-.91,.37-.22,.81-.34,1.31-.34,.74,0,1.33,.25,1.78,.76s.68,1.21,.68,2.11c0,.12,0,.23,0,.34,0,.1-.01,.18-.02,.24h-4.35v1.18c0,.59,.1,1.08,.31,1.46,.21,.39,.48,.68,.81,.88,.34,.2,.69,.29,1.06,.29s.66-.07,.9-.22c.25-.15,.45-.33,.6-.55,.15-.22,.26-.43,.31-.62l.29,.1c-.06,.27-.18,.55-.38,.85-.2,.29-.46,.54-.78,.74-.33,.2-.72,.3-1.19,.3Zm-.06-7.39c-.39,0-.73,.11-1,.34s-.49,.54-.64,.94c-.15,.4-.23,.85-.25,1.35h2.8c.1,0,.2-.01,.3-.04,.1-.02,.18-.09,.25-.21,.07-.12,.1-.31,.1-.59,0-.58-.15-1.02-.45-1.33s-.67-.46-1.12-.46Z"/><path class="cls-2" d="M690.38,43.97v-.48h2.65v-9.16h-1.99v-.34l1.99-.18,.62-.35h.34v10.02h2.65v.48h-6.24Z"/><path class="cls-2" d="M697.38,43.97v-.48h2.65v-9.16h-1.99v-.34l1.99-.18,.62-.35h.34v10.02h2.65v.48h-6.24Z"/><path class="cls-2" d="M707.84,44.11c-.57,0-1.08-.16-1.53-.48-.45-.32-.81-.77-1.06-1.35-.26-.58-.38-1.25-.38-2.02,0-.5,.06-.99,.17-1.46s.3-.9,.55-1.28c.25-.38,.56-.69,.92-.91,.37-.22,.81-.34,1.31-.34,.74,0,1.33,.25,1.78,.76s.68,1.21,.68,2.11c0,.12,0,.23,0,.34,0,.1-.01,.18-.02,.24h-4.35v1.18c0,.59,.1,1.08,.31,1.46,.21,.39,.48,.68,.81,.88,.34,.2,.69,.29,1.06,.29s.66-.07,.9-.22c.25-.15,.45-.33,.6-.55,.15-.22,.26-.43,.31-.62l.29,.1c-.06,.27-.18,.55-.38,.85-.2,.29-.46,.54-.78,.74-.33,.2-.72,.3-1.19,.3Zm-.06-7.39c-.39,0-.73,.11-1,.34s-.49,.54-.64,.94c-.15,.4-.23,.85-.25,1.35h2.8c.1,0,.2-.01,.3-.04,.1-.02,.18-.09,.25-.21,.07-.12,.1-.31,.1-.59,0-.58-.15-1.02-.45-1.33s-.67-.46-1.12-.46Z"/><path class="cls-2" d="M717.99,43.97v-.48h.74l2.42-9.88h.56l2.42,9.88h.9v.48h-3.3v-.48h1.41l-.81-3.32h-2.31l-.8,3.32h.98v.48h-2.21Zm3.18-8.57l-1.04,4.33h2.09l-1.05-4.33Z"/><path class="cls-2" d="M725.38,43.97v-.48h2.65v-9.16h-1.99v-.34l1.99-.18,.62-.35h.34v10.02h2.65v.48h-6.24Z"/><path class="cls-2" d="M732.85,43.97v-.28l4.44-6.83h-2.35c-.69,0-1.08,.34-1.16,1.01l-.2,1.68h-.39v-3.14h5.21v.28l-4.44,6.83h2.62c.69,0,1.08-.34,1.16-1.01l.2-1.68h.39v3.14h-5.47Z"/><path class="cls-2" d="M742.5,44.11c-.47,0-.87-.11-1.22-.33-.35-.22-.63-.52-.86-.9s-.4-.8-.51-1.27c-.11-.47-.17-.94-.17-1.43s.06-.97,.17-1.43c.11-.46,.28-.88,.51-1.26s.52-.68,.86-.9c.34-.22,.75-.33,1.22-.33s.87,.11,1.22,.33c.35,.22,.63,.52,.86,.9,.23,.38,.4,.8,.51,1.26,.11,.46,.17,.94,.17,1.43s-.06,.96-.17,1.43c-.11,.47-.28,.89-.51,1.27-.23,.38-.52,.68-.86,.9-.35,.22-.75,.33-1.22,.33Zm0-.45c.59,0,1.03-.25,1.33-.74,.3-.49,.45-1.17,.45-2.04v-1.4c0-.87-.15-1.55-.45-2.04-.3-.49-.74-.74-1.33-.74s-1.03,.25-1.33,.74c-.3,.49-.45,1.17-.45,2.04v1.4c0,.87,.15,1.55,.45,2.04s.74,.74,1.33,.74Z"/><path class="cls-2" d="M746.38,43.97v-.48h2.65v-9.16h-1.99v-.34l1.99-.18,.62-.35h.34v10.02h2.65v.48h-6.24Z"/><path class="cls-2" d="M755.58,44.11c-.51,0-.92-.16-1.21-.47-.29-.31-.44-.69-.44-1.14,0-.42,.1-.77,.31-1.04,.21-.28,.47-.51,.79-.69s.63-.35,.94-.49l1.43-.66v-1.36c0-.46-.15-.82-.43-1.08-.29-.26-.65-.39-1.09-.39-.4,0-.73,.1-.99,.29-.26,.2-.44,.39-.55,.57,.21,.22,.38,.4,.48,.53,.11,.13,.16,.29,.16,.46,0,.16-.05,.31-.16,.45s-.27,.21-.48,.21-.37-.07-.48-.22c-.12-.14-.18-.32-.18-.54s.05-.45,.16-.71,.27-.51,.49-.75c.22-.24,.5-.44,.83-.59,.34-.15,.73-.23,1.19-.23,.49,0,.89,.1,1.18,.29,.29,.2,.5,.45,.63,.75,.13,.3,.19,.62,.19,.95v4.54c0,.39,.14,.59,.41,.59,.18,0,.32-.07,.42-.22s.17-.29,.21-.43l.25,.08c-.03,.19-.09,.38-.2,.58-.1,.2-.24,.37-.41,.5-.17,.14-.38,.2-.64,.2-.28,0-.52-.09-.71-.28-.19-.19-.29-.48-.29-.87-.07,.17-.2,.34-.36,.52-.17,.18-.37,.33-.62,.45s-.52,.18-.84,.18Zm-.8-1.93c0,.36,.11,.67,.34,.93,.22,.26,.52,.39,.9,.39,.24,0,.46-.05,.65-.16,.19-.11,.35-.24,.48-.39,.13-.15,.21-.29,.26-.43v-2.56l-1.33,.66c-.21,.1-.42,.22-.62,.34-.2,.13-.36,.28-.48,.47s-.19,.44-.19,.76Z"/></g><g class="cls-4"><g><path class="cls-1" d="M1359.49,28.44c.21-.16,.35,.46-.05-.23l.61,.17,.71-.46c1.28-.09,2.83-.11,3.38-.17-.4,.04-.35-.1-.37-.17,.56-.07,1.33-.59,1.6-.15,1.21-.4,.01-.65,1.26-.9l-.94,.18,.11,.47c-1.18,.19-.81-.66-2.12-.36l-.86,.49c-.51-.07-.73-.35-1.27-.2,.1,.1,.37,.17,.33,.38l-.59-.09c.32,.3-.94-.18,.18,.41l-.63-.24c-.99,.31-1.32-.07-2.12,0l-.6,.57"/><path class="cls-1" d="M1345.9,37.79l1.47-.39c.33,.02,.96-.09,.87,.25l-1.01,.23c.8,.3,1-.3,1.81,.07l-.81,.8c-.54,.14-1.26,.23-1.33,.65,.49,.36,.16-.39,.77-.22,.1,.1,.07,.31,.56,.31l-.26-.07,2.3-.38,.94,.56c-.1-.1-.37-.18-.22-.28,.43,.49,.16-.4,.89-.04-.35-.1-.63-.25-1.09-.09l.18-.68c.37-.19,.77-.22,1.17-.26l-.33,.35,1.03-.15-.13-.18,1.33-.28,.54,.23,1.33-.65c-.03-.16-.38-.26-.17-.42,.96-.09,1.07,.74,1.99,.12,.28,.15,.88,.25,.79,.59,.53,.15-.23,.08-.74,.01,.33,.02,.28,.15,.16,.34l-.93-.11c.49,.36-.82-.01,.02,.44-.96-.27-1.42,.63-2.33,.22l-.84,.64-1.68,.18c1.05-.07,1.96,.33,2.85-.07l-.51-.07,1.88-.43-.18-.05c1.26-.23,1.67,.1,1.95-.11l-.04-.15c.07-.05,1.3-.08,1.46-.11l.05-.13c.32,.31,.99-.32,1.3-.09l-.12-.18c-.23,.09-.45,.17-.77,.23l.16-.4c.58,0,1.35,.14,1.99-.27l.16,.33,1.63-.07c-.19-.13-.23-.28,0-.37l1.51,.11c-.14-.26,.15-.77,.91-.71l.12,.18-.23-.28,1,.05v-.65c.28,.07,.64-.12,.59,.38,.47-.09,1.03-.16,1.33,.07l-.23,.08,.67,.03,.03-.58,.35,.09c-.14-.26-.05-.23-.46-.2,.29-.51,1.5-.25,1.65-.65,.04,.16,0,.37-.53,.51,1.33,.06,1.45-1.14,2.89-.98-.04-.16-.23-.28-.2-.49,1.32,.34,.79,.2,1.95,.58l-.59,.28c-.67-.03-1.32-.33-1.96,.07l.41,.33c.28,.15,1.74-.65,2.26-.22-.02-.08-.7-.18-.15-.26,.67,.02-.38,.49,.74,.34l-1.31,.39c-.52,.23-.42,.99-.65,1.07l-1.6-.13c.67,.4-.9,.71,.13,.91,.22-.45,.79-.15,1.28-.17l.04-.5c.91-.35,1.85-.55,2.65-1-.45-.48,.87-.51,.44-.91l1,.04c.1-.27,.41-.33,.77-.24,.34-.64-1.75-.09-1.11-.14l.15,.26c-.51-.71-3.61-.27-2.92-.82,1.02,.48,2.61-.42,3.28,.26l.51-.6c.19,.12,.6,.08,.98-.04,.13,.18-.32,.72,.45,.48l-.03-.44c.51,.06,.71,.55,1.04,.19-.43,.25,.1,.39,.15,.62,.43-.25,1.59-.25,1.3-.4l-.24,.38,.54-.15,.73,.62,.66-.34,1.49,.02-.1,.27c.55,.21,1.21-.78,1.06-.38,.38,.17,.75,.34,.67,.68,.69,.11,2.43-.86,3.25-.59l.23,.27-.65,.06c.26,.35,.96-.13,.86,.43l-.27,.22-.84-.35-.2,.54,1.37-.18,1.18,.72,.32-.36-.71-.17,.02-.58c0,.29,1.14-.09,.96-.13,.14-.11-.62-.15-1.23,.07-.88-.22,.34,.38-.41,.34l.14-.4,2.14-.72c-.54,.16-.29-.51-1.11-.12l.27-.22c.45-.18,1.07-.03,1.85,.08l1.08-.61c1.48-.37,2.59,.05,4.35-.18-.55,.45-1.31-.25-1.53,.5l.78,.12,.41-.34,.38,.16c1.27-.2,.86-.8,2.18-.85l-.25,.31h1.92l.07-.34c.67,.01,1.33,.31,2.01,.03-.85-.05-1.04-.46-.82-.55l.53,.12c-.22-.48,1.19-.52,1.84-.59-.23,.38,1.01-.28,.64,.22,.99-.35,2.44-.81,3-.61,.31,.21-.21,.46-.48,.69l.81-.11,.26-1.17,1.23-.08,.73-.7-.73-.24c-.25,.31-1.48,.38-1.19,.81-.69-.09-1.02-.38-1.76-.33l.63-.15c-1.36-.09-2.22,.72-3.46,.44,.15,.25-.39,.42-.66,.65-.74,.05-1.21,.45-2.06,.4,.26,.35-.84,.61-1.13,1.04-.17-.33-.73-.24-.9-.57,.51-.61,1.73-.69,2.65-.98l.17-.61-.25,.3-.81-.55-.16,.32c-.98,.06-.68-.37-.86-.41l-.21,.46c-.84-.05-1.59-.37-2.65,.02l.24-.67c.89,.22,2.03-.46,3.41-.58-.53-.12-.48-.55-.78-.76l-1.18,.23,1.1,.4c-.45,.18-.51-.34-1.01,.28,.5-.61-.94-.43-1.01-.67-2-.05-2.94,.16-4.85,.13l-.57-.29c.64-.06,1.5-.29,1.84,.09l-.13-.18c.74-.04,1.5-.29,1.98-.03l.41-.34c.35,.38,1.43-.23,1.34,.4,1.09-.25-.2-.77,1.15-.96,.67-.28,1.55-.07,2.58-.27l-.09-.02c-.22-.2,1.18-.24,1.16-.31-1.49,.31-1.96-.82-2.75-.06l-.52-.41c-.16,.33-.58,.3-1.07,.33l.22,.2c-.31-.22-1.37-.18-2-.04l-.49,.31-.35-.37-2.27,.46c.75,.04-.92,.29,.66,.02-.41,.34-1.06,.68-1.75,.88l-.96-.53c.1-.27,.23-.38,.52-.52l.73-.04-.26-.35,1.07-.32-.83-.64-2.01,.52c-1.15-.28-2.47,.34-3.74,.54l-.79-.19c-1.02,.18-2.5,.19-3.53,1.02v-.37c-.24,.37-.83,0-1.23,.05-.41,.33,.43,.4-.21,.82l1.49,.02-1.86,.47,.17,.33c.4-.04,1.35-.53,1.31-.03l-1.03,.17-.03,.21-.71-.18c.62,.16-.9,.35,.36,.46-.73,.03-.61-.45-1.09-.43-.38,.12-1.09,.59-1.68,.51l.1,.39c-.25,.3-1.07,.3-1.26,.55-.81-.28-.75,.32-1.72,.36-.41-.33,.62-.5,.82-.66-.84-.07-1.25,.26-1.92,.24,.03-.21,.15-.4,.64-.42l-.07-.6-1.67,.22c.51-.6-1.39,0-.67-.39,0,.36-.85,.22-1.32,.31l-.29-.51-.48,.39-.96-.25c.25,.36-.59,.28-.97,.4,.42,.04,.77,.13,.18,.41,1.02-.52,2.69-.39,3.06,.07-.6,.57-2.27,.8-2.89,.63l-.72-.27c-.17,.32-.74,.67-.04,.86l-1.08,.29-1.05-.28c.36-.19-.62-.17,.11-.55,.32,.3-.61,.2-.83,.29-.39-.25-.38-.54,.04-.86,.47-.09,.59,.09,.49,.35l.26-.29,.98-.03-.04-.16,1.45-.12-.93-.1c.21-.16,.52-.22,.78-.15l-.32-.3,1.84-.53c-2.18,.15-4.42,1.07-6.35,.84,.23,.28,1.44,.9,.55,.95l.5-.3c.51,.06,.23,.28,.04,.52h-1.88c.05-.13-.47-.27,.15-.4l.53,.14,.15-.4-.66-.03,.43-.25-.46-.56c-.97,.03-.22,.45-1.02,.52l1.06,.36c-.76,.6-.03,.58-.52,1.24,.15-.03-1.19-.18,.57,.01l-.35-.1,.91,.03-.71,.47c.31-.06-.55,.44,.54-.15-.12,.19-.55,.43-.17,.68l.79,.21,.41-.33,1,.05,.2,.49c-.48-.27-1.29,.09-1.89,0l.09,.39-.7,.18h.49c-.14,.09-.28,.2-.59,.26-.27-.44-1.31-.35-1.56-.71-.21-.2,1.22-.04,1.27-.17-.25-.36-1.67,.21-1.4-.38-.35,.27-.35-.46-.59,.28v-.36l1.11-.14-.47-.27,.61-.2c-.38,.11-.82-.37-.46-.56l-1.04,.08v-.29c-.88-.31-1,.24-.95,.11-.19-.13-.78-.21-.42-.41l.28,.15-.63-.24,.07,.31-1.34,.22-.72-.27-.99,.32c.05,.23-.92-.1-.02,.29-.94,.18-1.45-.26-2.39-.09l.33-.35,.83,.09c-.38,.11-.1-.1-.28-.15l1.54-.08c-.51-.06-1.73,.32-1.36-.23,.31-.06,.64-.04,.43-.24-.82,.35,.22-.45-.87,.12l.57-.35c.68,.12,1.31,0,1.98-.26l.5-.67-.99-.42,1.61-.07c.83-.28-.3-.59-.09-.76l-1.18,.56-.75-.06c.49,.35-.99,.68-.5,.67"/><path class="cls-1" d="M1344.93,37.8c.52,.15,1.04,.3,1.71,.34l-.74-.35"/><path class="cls-1" d="M1347.85,45.6l.58,.02c-.73-.35-1.14,.05-2.18-.17"/><path class="cls-1" d="M1348.69,52.53c.48-.45,1.87-.14,1.19-.63l.46,.2-.03-.52c-.5,.01-1.37,.58-1.47,.11-.14,.11,.19,.13,.16,.34l-1.03,.23"/><polygon class="cls-1" points="1360.58 30.35 1360.11 30.44 1360.08 30.65 1360.58 30.35"/><path class="cls-1" d="M1359.37,31.11c-.32,.06-.02,.29-.44,.25l.87-.13-.43-.12Z"/><path class="cls-1" d="M1362.87,29.65c.18,.05,.42,.04,.21,.2-.16,.03-.24,0-.42-.04,.82,0-.15,.4-.36,.56-.13-.18,1.32-.3,1.84-.16,.61,.17-.71,.83,.25,.72,.52-.59-.23-.28-.04-.89,.26,.07,.54,.22,.86,.16l-.44-.12c.59-.28,.42-.33,1.2-.48-.19-.13-.66-.03-.7-.19,.29-.14,.71-.1,.99,.05,.13-.48,.47-.09,.05-.5l.56-.07c-1.16,.27-.55-.59-1.73-.03l.35,.09c-.03,.21-.59,.28-.97,.39l-.38-.25c-.33-.02,.12,.18-.26,.29h-.82c.18,.05-.12,.18-.19,.24Z"/><path class="cls-1" d="M1349.81,40.28l.68-.25-.54-.23c.28,.15-.02,.29-.14,.47Z"/><path class="cls-1" d="M1346.39,43.8c0,.73,1.79-.45,1.56,.36,.12-.18-.07-.31,.42-.32-1.25,.31,.66-1.14-1.15-.77"/><path class="cls-1" d="M1363.53,30.71l.35,.09-.31-.31c-.23,.08-.28,.22-.03,.21Z"/><path class="cls-1" d="M1348.58,42.58c-.33-.02-.55,.14-.51,.3,.65-.04,.74,.35,1.52,.21-.42-.05-.4-.33-1.01-.5-.21-.21,.37-.19,.51-.3,.49,0,.32,.31,.23,.28l.93-.25,.1,.47-.65,.04,.54,.23c.2-.24,.41-.4,.77-.22,.39,.25-.77,.22-.54,.51,.03-.21,.88-.49,1.33-.28l-.23-.28,1.12-.12c-.89,.04,.23-.45-.75-.43,.17,.05,.12,.18,.23,.28-.32,.06-.42-.04-.72,.09l-.02,.29c-.65,.04-.05-.6-.66-.41,.61-.19,.4-.77,1.4-.7,.18-.32-.39-.26-.58-.38-.21,.16-.02,.29-.32,.42-.01-.44-.49,0-.93-.11-.44-.13-.99,.75-1.92,.63l.14,.26Z"/><polygon class="cls-1" points="1352.35 40.26 1351.8 40.04 1351.73 40.09 1352.35 40.26"/><path class="cls-1" d="M1352.43,41.39l.54,.23-.54-.23Z"/><path class="cls-1" d="M1353.13,44.52c.14-.11,.63-.48,.84-.28,.14-.11-.28-.15-.46-.2l-.7,.54c-.44-.12-.84-.46-.59-.83-.97,.46-2.57,.68-3.29,.76l-.02,.29c-.55,.14-1.18,.26-1.46,.47"/><path class="cls-1" d="M1354.83,44.41l.02,.08-.81,.07,.28,.15c-.18-.05-.11-.1-.2-.13"/><path class="cls-1" d="M1347.45,45.27c.68,.49,.74-.38,1.69-.19,.16,.34,.03,.52-.41,.77,.23-.08-.11-.1-.11-.1"/><path class="cls-1" d="M1354.78,40.88c.11,.1,.4-.03,.49-.01-.53-.14,.56-.43-.3-.23-.14,.11-.21,.16-.19,.24Z"/><path class="cls-1" d="M1353.3,43.47c-.35,.27-.46-.2-.67-.04-.16,.4,.05,.6,.93,.48l-.09-.02c.72-.46,2.09-.59,2.53-.83,.83,.01-.25,.37,.35,.46,1.25-.31,1.99-.32,3.11-.45,.16,.34-.7,.17-.68,.25,.78,.14,.58,.75,1.34,.81,.04-.57,1.44-.2,1.62-.15l-.81,.08c.23-.09,.2,.12,.21,.2-.42,.33-1.13-.23-1.34,.29,.27,.07-.26,1.03,.95,.93-.03-.16,.28-.22,.44-.25,.35,.09,.21,.57-.3,.5,.49-.01,1.04-.53,1.69-.21l-.03,.21,1.8-.1-.31,.43c.23-.08,.34,.01,.6,.09l-.18-.04,.69-.26-.44-.12c.19-.24,.49-.38,.7-.54,.02,.44,1.09,.07,1.55,.27l-.18-.05,.61-.2c-.65,.05-1.2-.17-1.96-.23-.65,.05-.63,.49-1.35,.22,.91-.34-.27-.07,.31-.43,.23-.09,.4-.04,.65-.05-.26,.3,.29-.51-.66-.32-.21,.16-.79,.15-1.03,.16,.54-.15,.1-.27,.49-.38-.18-.05-.42-.04-.6-.09,.33,.02,.37,.17,.25,.36-.64-.24-.02,.66-1,.32l.23-.45h-.24c.12-.18,.73-.38,.38-.47,.39-.12,.51,.06,.76,.05l-.05-.23,.42,.04-.79-.21c1.35-.22-.23-.65,1.24-.69,.39,.25-.05,.5,.27,.8-.16-.34,1.04-.53,1.78-.55l-.12,.19,1.11-.22-.09-.39c-.46-.2-.65,.41-1.05,.08,.23-.08,1.22-.77,1.22-.4l-.72-.27,1.48-.04c-.23-.28,.68-.26,.98-.4,.18,.05-.12,.19-.19,.24,.88,.23,2.16-.3,3.1-.2-.01-.73,1.5-.62,1.51-1.27l-.16,.03c-.39-.25,.35-.27,.56-.43-.62-.17-1.25-.04-2.02,.19-.09-.39,.91-.34,1.1-.58,.18,.05,.42,.04,.74-.02l-.21-.2c-.71,.47-2.25-.09-2.65,.68,.21,.2,.88-.13,.79,.21-.42,.32-1.42,.28-1.73,.7,.24-.37-.68-.4-.5-.72-.12,.19-.24,.37-.59,.28,.58-.36-.27-.44,0-.73l-.47,.09c.09,.02,.26,.07,.34,.01-.42,.69-.76-.42-1.4,.36,.98-.4,.61,.82,1.55,.27-.17,.32,.18,.41,.24,.65,.71-.83,1.5,.04,2.21-.07-1.07-.36-1.99,1-2.81,.35v-.37c.16,.34-.58,0-.67,.33,.08,.02,.42,.04,.37,.17-.32,.06-.51-.06-.78-.13-.14,.11-.05,.13-.03,.21-.13-.18-.87-.52-.97-.62,.09,.02,.1,.1,.19,.13-.48-.64-2.28,.48-2.3-.32-1.63,1.17-3.94,.78-5.61,1.77-.54-.22-.4-.33-1.37-.23-1,.3-2.83,.6-3.23,1-.93,.25-.61-.54-1.74-.41,.4-.03,.51,.44,.77,.51Z"/><path class="cls-1" d="M1347.6,50.53c.35,.1,.74-.38,1.17-.34"/><path class="cls-1" d="M1356.52,41.66l-.72,.09c1.54-.44,1.53,.57,3,.18l.23-.45c.39-.11,.42,.05,.67,.04,.35-.64-.88,.12-.81-.3l-.35,.27c-.77-.87-1.62,.5-2.46,.04,.18,.05,.56-.06,.44,.12Z"/><path class="cls-1" d="M1356.26,44.51c-.26-.08,.04-.21-.23-.28h.83c.05-.12,.16-.39-.25-.35,.48,.28-.46,.17-.76,.3,.77,.14-.6,.27,.4,.33Z"/><path class="cls-1" d="M1363.46,39.61l.26,.07c.05-.13-.12-.18,.02-.29,.52-.22,.59,.09,.86,.16-.4,.04-.52,.23-.91,.34,1.73-.34,1.26,.12,2.77-.13l-.37-.17c.77-.6,.39,.25,1.25,.04,.16-.03-.48-.27,.13-.47,.68-.26,.21,.2,.62,.16l-.13-.18c.14-.11,.25,0,.33,.02l-.09-.39c.95-.18,1.45-.49,2.24-.28,.33-.35-.91-.03-.27-.44,.28,.15,1.21,.25,1.28-.17l-.02-.08-.65,.41c-.13-.18,0-.37,.2-.53-.61,.57-1.28-.2-1.61,.52-.11-.1-.07-.31-.41-.33l-.24,.37c-.14,.11-1.02,.24-1.4,.36,.12-.19,1.12-.5,.29-.51-.47,.09-.24,.38-.8,.45l-.14-.26c-.86-.16-.73,.75-1.42,.28-.91,.34-1.83,.6-1.82,1.05Z"/><path class="cls-1" d="M1359.41,44.22c.03-.21-.65,.04-.69-.12,.16,.34,.13,.18,.69,.12Z"/><path class="cls-1" d="M1348.41,54.65c.48-.09,.58,.38,1.38,.24l-.41,.4,.96-.18c-.66,.04-.53-.51-.56-.67l.8-.15c.21-.16-.09-.39-.39-.62-.05,.13-.9,.41-.32,.42-.32,.06-1.03,.23-1.17-.03"/><path class="cls-1" d="M1350.66,51.31c.18,.05,.76-.3,1.13-.13-.21-.2-1.2-.19-1.13,.13Z"/><path class="cls-1" d="M1351.15,52.4l.8,.22c.16-.03,.32-.42,.75-.38,.16-.39-2.11,.22-1.61-.52l.97,.27c.18-.32-.44-.12-.8-.22l.43-.32c-.23-.28-.62,.2-.97,.1-.36,.27,1.11,.53,.44,.85Z"/><polygon class="cls-1" points="1355.79 49.44 1354.5 49.22 1354.22 49.44 1355.79 49.44"/><path class="cls-1" d="M1359.24,49.29l.39-.11c-.2-.13-.46-.2,.09-.34l-.85-.09-.02,.29c-.67-.04-1.98,.04-1.91-.02l.02,.08-1.24,.02c.78,.51,2.46-.12,3.52,.17Z"/><path class="cls-1" d="M1353.36,51.55c.07-.05,.25,0,.34,.02,.03,.52-1.01-.06-1.05,.52,.85,.09,2.51-.26,2.62-.15,.88-.12,2.55-.47,2.43-.65l-.14-.26h.74c-.33-.03-.35-.11-.3-.24,.34-.35,1.36,.16,.52,.43,.21-.53,1.47-.11,1.7-.56l-.87-.17c.44-.24,.97-.46,.74-.74l-1.17,.33,.48-.09,.18,.42c-.5,0-1.28-.13-1.01-.43-.3,.14-.95,.18-.42,.32-.36-.1-1.22,.47-1.33,0l.1,.1c-.37-.17-.9,.04-1.41-.02l-.02,.29c-.73,.09-.94,.25-1.82,.37l.46,.2c-.2,.24-.78,.22-1.2,.18l.46,.2-.02-.08Z"/><path class="cls-1" d="M1350.76,54.79c.18-.32,1.17-.34,1.05-.52l-1.3,.15c.27,.07,.39,.25,.25,.36Z"/><path class="cls-1" d="M1352.97,53.49l.3,.23-.62,.19c.12,.18,.55,.23,.74,.35,.44-.24-.23-.65-.4-.7,.3-.5,.62,.17,1.08-.36-.51-.07-1.86,.22-1.65,.42l.55-.14Z"/><path class="cls-1" d="M1352.02,54.85c.27-.29-.62-.17-.76-.06l.76,.06Z"/><path class="cls-1" d="M1355.18,52.64c-.78,.22-.02,.29-.66,.4l.76,.06,.11-.26c.35,.1,.8-.15,1.19-.26-.74,.01-1.19-.11-1.54-.21-.07,.05,.19,.13,.14,.26Z"/><path class="cls-1" d="M1353.76,54.45l-.04,.21c.14-.11,.37-.19,.27-.3,1.08,0,2.13-.14,2.89-.45,1.14-.13,.67,.77,1.81,.28,1.4-.42,3-.34,3.78-.57l-.02-.08c.44-.25,1.31-.09,1.79-.19l.23,.28,1.13-.51-.6-.09,.35-.27c-1.54,.54-2.94-.47-4.31,.1-.78-.14-.99-.35-1.93-.46-.05,.5-.96,.17-1.22,.1l.42-.32c-.34-.02-.48-.28-.83,0l-.02-.45c-.58,.35-.42,.32-.92,.7,1.4-.05,2.57,.34,3.77,.53-.12,.18-.72,.09-.83-.01-.12,.19,.58,.02,.23,.28-.55,.14-.58-.01-.78-.14l.07,.31c-.79,.15-.02-.45-.98-.27l.16,.33c-.5,.01-1.35,.29-1.54,.16l.09,.03c-.55,.14-2.13,.14-2.78,.18,.35,.1,.69-.25,.83,0-1.33,0-.34,.72-1.78,.61,.18,.05,.36,.1,.75-.01Z"/><path class="cls-1" d="M1365.05,46.47c.48-.09,.49-.01,.51-.3-.49,.02-.63,.12-.51,.3Z"/><path class="cls-1" d="M1360.95,49.92c.13-.18,1.13-.13,1.58-.38,.19,.13,.25,.36,.78,.13-.09,.34-.25,.38,.3,.59,.14-.11,.03-.21,.02-.29,1.13-.14,.89,.23,1.35,.43-.14,.11-1.03,.24-.57,.44-.69,.26-.76-.42-1.11-.15-.19,.61-2.23,.43-2.81,1.15,.19,.13,.07,.31,.18,.41,.48-.09,.48-.45,.6-.64,.9,.32,2.16-.38,3.39-.41l-.11-.47c.59,0,1.22,.25,1.05,.57-.28,.22-.78,.23-.97,.11,.18,.05,.13,.54,.76,.42,.14-.11,.28-.22,.6-.28l.05,.23c.74-.02,.32-.43,.95-.55l-.37-.17c.25,0,.55-.15,.65-.04l-.05-.23c.39-.12,.94,.1,1.06-.08-.43-.77-1.71,.5-2.34-.03-.02-.08-.2-.12-.05-.23,.3-.14,.74-.02,.69,.11,.03-.21,.05-.5,.54-.51v.37c.14-.11,.76-.31,.91-.05l-.03-.16c.95-.19,.29,.52,1.01,.41-.25,0-.28-.15-.3-.22l1.2-.19,.09-.34c-.51,.3-1.21-.17-1.68-.08l.28-.22-.64,.49c.05-.87-1.64,.44-2.25,0l.13,.18c-1.63-.21-.87-.52-2.18-.8,.46-.17,.19-.61,.1-.63,.19,.12,.16,.34-.16,.4-1.05-.57-1.78,.92-2.72,.44-.21,.16-.42,.32,.07,.31Z"/><path class="cls-1" d="M1369.81,43.79l.5,.35c-.7,.18-.08,.34-.93,.63,.32-.06,.51,.06,.69,.11l-.09-.02c1.13-.14,2.26,.09,3.43-.55l-.26,.3c.57,.3,.31-.43,1.25-.33,1.4,.3-.85,.94-.51,1.32,.23-.08,.4-.04,.35,.09-.81,.08-.07,.06-.49,.38-1.04,.16,.24-.74-1.01-.41-.9,.05-.21,1.55-1.63,.81l.48-.09c-.48,.09-2.32,.04-2.79,.14,.18,.41-1.11,.58-1.32,.38l.15,.26c-.44-.12-.69,.26-1.08,0,.02,.08,.37,.17,0,.36,.23-.08,.48-.09,.74-.02-.93,.26-1.42,1.01-2.22,1.17,.62-.2,1.01,.41,1.66,0,.18,.05-.37-.17,.01-.29l1.27,.12c-.46-.2,.83-.37,.16-.4,.12,.18-.48,.09-.62,.2l-.02-.44c.6-.28,1.13,.23,1.74,.31l-.37,.19c.91-.34,2.24-.36,3.28-.52l-.64-.24c.03-.21,.39-.12,.77-.23l.43,.41c1.54-1.2,2.58,.03,3.76-.62-.07,.06-.16,.03-.24,0,.96-.48,.62,.16,1.62-.17,.53-.23,.04-.5-.11-.47,.75-.69,.55,.21,1.5-.35,.37,.17,.45,.48,.85,.44l.12-.19c.95-.2,.12,.18,.73,.26,1.28-.55,1.71-1.17,3.69-1.26l-.24,.38c.22-.45,.69,.1,1.02-.25-.21,.17,.01,.37,.33,.3-.78-.12,.51-.31,.2-.53,.01-.29-.79,.16-.99,.04l.67-.34c-.76-.05-.79,.16-1.71,.15,.57-.73,.96-.49,1.87-1.21l-.71-.18,.42-.33c-.44,.25-1.03-.11-.59-.37,.46,.19,.78,.12,1.46-.14l-.19-.41c-.15,.03-.14,.11-.05,.13-.53,.23-.6-.08-.87-.14,.6-.29,1.3-.11,1.61,.11-.2-.12-.59-.37-.21-.49,.38-.12,1.28-.19,1.2,.16-.88,.14-.41,.33-.83,.66,.79-.16,.96,.17,1.49,.3l-.5,.68c.34,0,.29-.51,1.21-.5,.18,.04-.15,.4,.31,.59l-.06-.23c.74-.04,1.2-.51,1.52-.58,.59,.36,1.63-.48,1.78-.23,.89-.44,.97-.13,2.22-.78,.05-.13-.28-.43,.46-.47,.19,.41,1.16-.67,1.5,0-.19-.41,1.16-.38,1.37-.83,.61-.22,.82,.27,1.39-.1l-.17-.04c1.21,.15,2.61-.53,3.64-.43-.16,.03-.38-.16-.42-.32l.86-.23-.32,.36c.34-.28,.77-.26,1.15-.39-.25,.02-.47-.18-.58-.28,.1-.27,.52-.24,.86-.24-.09-.02-1.16,.02-1.3,.14l-.09,.27c-.27-.06-.95,.21-.94-.08l.31,.22c-.77,.54-1.35-.03-1.56-.23,.75,.33,1.41-.97,1.85-.28,.47-.1,.55-.45,.37-.49-.09-.02-.22-.2-.33,0,.25-.01,.29,.14,.31,.22-.97,.42-.39-.53-1.43-.05,.03,.44-1.1,.25-1.43,.6,.52-.24,.55,.21,.84,.35-.96-.16-.28,.51-1.11,.53-.58,0-.77-.4-.39-.53-.68,.27-1.23,.07-1.45-.13,.54,.13,1.4-.39,1.11-.53-.23,.09-.45,.18-.26,.3-.5-.34-2.09,.3-2.19-.09l.13,.18c-1.23,.07-1,.63-2.35,.6,.2,.12,.03,.44-.55,.45l.1-.27-.05,.13c-.86-.42-1.5,.66-1.98,.4-.33-.01,.67,.02,0,.29-.09-.02-.85-.06-.95,.21-.88,.15-1.68-.04-2.41-.29,.6,.08,1.33-.33,1.29,.17,.44-.26,.6-.58,1.01-.63,.31-.44-.48-.55-.78-.77,.4-.05,1.04,.18,1.21-.15h-1.16c1.44-.88,1.76-.58,3.47-1.04-1.31,.41-.43-.4-1.47-.21,.34,0,.15,.25,.28,.43-.63-.52-1.34-.03-2.33-.34,.25-.01,1.54,.15,.65,.59-.95,.49-2.29,.47-3.19,.53l.03,.44-.72,.11c.83-.66-1.01-.4-1.29-.84,.07-.05,.73,.26,.81,.57-.74,.03-.56,.08-1.2,.21l.06,.24c-.44-.11-1.48,.06-2,.29l-.39-.25c.15,.62-1.25-.03-1.43,.58l-.02-.08c-.53-.13-.69,.55-.13,.48,.46-.18,.24-.38,.66-.34-.09-.02-.25,.01-.33-.01,.08-.34,.88-.14,1.22-.42,.32,.3,1.17,.37,1.34,.7-.63,.13-1.3,.11-1.73,.07-.47,.1,.35,.09,.23,.28-.23,.09-.42-.04-.6-.08,.11,.1,.46,.19,.43,.4-1.42,.3-1.74-.29-2.81-.27,.6,.08-.35,.28-.38,.49,.39-.12,.9-.06,.71,.18-.3,.14-.7,.19-.97,.12,.16-.03,.17,.04,.2,.12-.69-.1-.41,.04-1.08,.02l-.74,.69v-.29l-1.02,.17c-.13-.18,.11-.55-.66-.31l.16,.34-.63,.13,.08-.34c-.56,.08-.63,.13-.57,.36-.69-.1-1.59-.42-2.57-.02,.25,0,.11,.1,.21,.2l-1.37,.15,.28-.22-.67,.33-.14-.26c.02,.08-.03,.21,0,.37-.3,.14-.97,.11-.86-.16l.16-.03c-.32,.06-.22-.2-.39-.25-.14,.11-1.2,.19-.49,.38l.46-.17Z"/><path class="cls-1" d="M1361.42,50.48c-.6-.46,.11,.1-.67-.04l.67,.04Z"/><path class="cls-1" d="M1363.53,48.48c.69-.26,1.2,.17,1.27,.48-.32-.3-.18-.78-1.08-.73l-.19,.24Z"/><path class="cls-1" d="M1363.39,54.38l-.05-.23c-.51-.05-2.61,.25-3.57,.79l.09,.02"/><path class="cls-1" d="M1363.55,52.51c.6-.28-.07-.31,.05-.5l.48-.09c-.77-.05-.64,.12-1.35,.3l.9-.05-.09,.34Z"/><path class="cls-1" d="M1366.73,52.62l.6-.28,.05,.23,.34-.35c-.25,0-.48,.09-.68-.03l.02,.08c-.42,.33-.76-.05-1.16,.06-.47,.46,.64,.24,.82,.29Z"/><path class="cls-1" d="M1361.92,61.45c1.09-.36-.27-.8,1.3-.89l-.61-.46c.6,.46-.62,.2-.71,.54l.16-.03c.11,.1,.07,.31-.18,.32-.27-.07-.62-.17-.43-.41"/><path class="cls-1" d="M1353.42,69.19c.09,.03,.29-.22,.51-.01l-.43,.32c.64-.12,.95-.25,.99-.47l.38,.17-.18-.42c.61-.27,1.04,.14,1.74-.11-.29-.15-1.17,.05-1.61-.07-.28,.66-.66,.04-1.36,.29l-.02,.29Z"/><path class="cls-1" d="M1358.49,67.04c-.05-.23-1.6,.37-2.09,.02l.14,.26-.66,.04,.09,.03c.05,.23-.58,.43-.7,.25l.7,.12c-.09-.03-.11-.1,.05-.13,.38,.54,1.38-.58,2.24-.13v-.37c.57-.06,.64,.25,.77,.43,.03,.16-.13-.18,.27-.29l.36,.1c.95,.11,.6-.72,1.4-.87,.02,.08,.13,.18,.47,.2-.05-.23,.24-.45,.75-.38-.13,.19-.03,.21,.02,.44-.16-.34,1.08-.44,1.01-.75l-.7-.12c-.15,.11-.13,.19-.34,.35-.66-.32-.84,.36-1.78,.32"/><path class="cls-1" d="M1362.23,63.51l-.15,.11c1.31-.15,2.47-.21,3.7-.7l-1.27-.41,.3,.23-1.63,.23c-.21,.16,.32-.06,.43,.04l-.5,.38c-.55-.22-.27-.07-1.02-.06,.18,.05,.11,.1,.13,.18Z"/><path class="cls-1" d="M1359.44,68.25c-.09-.02-.11-.1-.04-.16,.48-.09,.72,.2,.59,.38l-.02-.08c1.06-.15-.72,.54,.45,.49l.45-.25,.91,.32-.97,.18,.97,.19c-.25,0-.2-.12-.22-.21,.95-.26,2.3-.26,3.04-.72l-1.2,.26c-.11-.1,.2-.24,.27-.29-.27-.07-1.18-.03-1.8-.12l.11-.26-.97,.18c.22-.16-.23-.28-.45-.49,.47-.17,.56,.22,1.06,.21l-.11-.47c-.92,.41-2.49,.13-2.75,.87l.66-.04Z"/><polygon class="cls-1" points="1359.08 68.89 1358.5 68.95 1358.62 69.13 1359.08 68.89"/><path class="cls-1" d="M1364.12,65.93c-.36-.1-.11,.26-.16,.03l.68,.04c-.86-.08,.56-.51-.52-.43,.03,.16-.2,.24,0,.37Z"/><path class="cls-1" d="M1359.89,69.92l.72-.54c-.67,.04-.56-.22-1.15-.24,.54,.15,.37,.54,.43,.78Z"/><path class="cls-1" d="M1365.5,65.71l-.07,.05,1.17-.07c-.09-.02-.11-.1-.2-.12,1.12-.22,2.4,.18,3.34-.45l-.09-.02,.88-.58,.99,.26,.07-.42c-.3,.14-.56,.15-.61-.09,.16-.03,.41-.04,.48-.09l-.75,.03c-.48,.1,.36,.09,.23,.28l-.95-.1c.06,.23-.12,.55-.66,.41-.63-.16-1.2-.09-1.29-.48-.38,.2-.93,.71-1.63,.6-.98-.26-2,.8-.91,.79Z"/><path class="cls-1" d="M1366.29,66.94l-.22-.2c1.22,.17,2.08-.49,2.68-.77-.54-.14-1.88-.12-2.49,.16l-.24-.28-.03,.21c.14-.11-.11-.1-.2-.12,.28,.15-.32,.43-.18,.69l-.62-.16,.37,.17-.66,.42-.3-.23c.22,.57,1.31-.17,1.88,.12Z"/></g></g></g></g></svg>