<?xml version="1.0" encoding="UTF-8"?><svg id="Layer_1" xmlns="http://www.w3.org/2000/svg" viewBox="0 0 1366 70.86"><defs><style>.cls-1{fill:#4f4840;font-family:XanhMono-Regular, 'Xanh Mono';font-size:14px;}.cls-2{fill:#d2dbdd;}</style></defs><path class="cls-2" d="M1353.11,3.89c-7.12,0-12.89,5.74-12.89,12.83,0-7.09-5.77-12.83-12.89-12.83s-12.89,5.74-12.89,12.83c0-7.09-5.77-12.83-12.89-12.83s-12.89,5.74-12.89,12.83c0-7.09-5.77-12.83-12.89-12.83s-12.89,5.74-12.89,12.83c0-7.09-5.77-12.83-12.89-12.83s-12.89,5.74-12.89,12.83c0-7.09-5.77-12.83-12.89-12.83s-12.89,5.74-12.89,12.83c0-7.09-5.77-12.83-12.89-12.83s-12.89,5.74-12.89,12.83c0-7.09-5.77-12.83-12.89-12.83s-12.89,5.74-12.89,12.83c0-7.09-5.77-12.83-12.89-12.83s-12.89,5.74-12.89,12.83c0-7.09-5.77-12.83-12.89-12.83s-12.89,5.74-12.89,12.83c0-7.09-5.77-12.83-12.89-12.83s-12.89,5.74-12.89,12.83c0-7.09-5.77-12.83-12.89-12.83s-12.89,5.74-12.89,12.83c0-7.09-5.77-12.83-12.89-12.83s-12.89,5.74-12.89,12.83c0-7.09-5.77-12.83-12.89-12.83s-12.89,5.74-12.89,12.83c0-7.09-5.77-12.83-12.89-12.83s-12.89,5.74-12.89,12.83c0-7.09-5.77-12.83-12.89-12.83s-12.89,5.74-12.89,12.83c0-7.09-5.77-12.83-12.89-12.83s-12.89,5.74-12.89,12.83c0-7.09-5.77-12.83-12.89-12.83s-12.89,5.74-12.89,12.83c0-7.09-5.77-12.83-12.89-12.83s-12.89,5.74-12.89,12.83c0-7.09-5.77-12.83-12.89-12.83s-12.89,5.74-12.89,12.83c0-7.09-5.77-12.83-12.89-12.83s-12.89,5.74-12.89,12.83c0-7.09-5.77-12.83-12.89-12.83s-12.89,5.74-12.89,12.83c0-7.09-5.77-12.83-12.89-12.83s-12.89,5.74-12.89,12.83c0-7.09-5.77-12.83-12.89-12.83s-12.89,5.74-12.89,12.83c0-7.09-5.77-12.83-12.89-12.83s-12.89,5.74-12.89,12.83c0-7.09-5.77-12.83-12.89-12.83s-12.89,5.74-12.89,12.83c0-7.09-5.77-12.83-12.89-12.83s-12.89,5.74-12.89,12.83c0-7.09-5.77-12.83-12.89-12.83s-12.89,5.74-12.89,12.83c0-7.09-5.77-12.83-12.89-12.83s-12.89,5.74-12.89,12.83c0-7.09-5.77-12.83-12.89-12.83s-12.89,5.74-12.89,12.83c0-7.09-5.77-12.83-12.89-12.83s-12.89,5.74-12.89,12.83c0-7.09-5.77-12.83-12.89-12.83s-12.89,5.74-12.89,12.83c0-7.09-5.77-12.83-12.89-12.83s-12.89,5.74-12.89,12.83c0-7.09-5.77-12.83-12.89-12.83s-12.89,5.74-12.89,12.83c0-7.09-5.77-12.83-12.89-12.83s-12.89,5.74-12.89,12.83c0-7.09-5.77-12.83-12.89-12.83s-12.89,5.74-12.89,12.83c0-7.09-5.77-12.83-12.89-12.83s-12.89,5.74-12.89,12.83c0-7.09-5.77-12.83-12.89-12.83s-12.89,5.74-12.89,12.83c0-7.09-5.77-12.83-12.89-12.83s-12.89,5.74-12.89,12.83c0-7.09-5.77-12.83-12.89-12.83s-12.89,5.74-12.89,12.83c0-7.09-5.77-12.83-12.89-12.83s-12.89,5.74-12.89,12.83c0-7.09-5.77-12.83-12.89-12.83s-12.89,5.74-12.89,12.83c0-7.09-5.77-12.83-12.89-12.83s-12.89,5.74-12.89,12.83c0-7.09-5.77-12.83-12.89-12.83s-12.89,5.74-12.89,12.83c0-7.09-5.77-12.83-12.89-12.83s-12.89,5.74-12.89,12.83c0-7.09-5.77-12.83-12.89-12.83s-12.89,5.74-12.89,12.83c0-7.09-5.77-12.83-12.89-12.83s-12.89,5.74-12.89,12.83c0-7.09-5.77-12.83-12.89-12.83s-12.89,5.74-12.89,12.83c0-7.09-5.77-12.83-12.89-12.83s-12.89,5.74-12.89,12.83c0-7.09-5.77-12.83-12.89-12.83s-12.89,5.74-12.89,12.83c0-7.09-5.77-12.83-12.89-12.83s-12.89,5.74-12.89,12.83c0-7.09-5.77-12.83-12.89-12.83s-12.89,5.74-12.89,12.83c0-7.09-5.77-12.83-12.89-12.83S0,9.64,0,16.72v54.13H1366V16.72c0-7.09-5.77-12.83-12.89-12.83Z"/><text class="cls-1" transform="translate(606 43.97)"><tspan x="0" y="0">© 2022 Michelle Alzola</tspan></text></svg>