<?xml version="1.0" encoding="UTF-8"?><svg xmlns="http://www.w3.org/2000/svg" xmlns:xlink="http://www.w3.org/1999/xlink" viewBox="0 0 106.03 135.31"><defs><style>.cls-1{fill:url(#New_Pattern_4);}.cls-1,.cls-2{mix-blend-mode:soft-light;}.cls-3{fill:#fff;}.cls-4{fill:#4f4840;}.cls-2{fill:url(#New_Pattern_4-2);}.cls-5{fill:#bb7572;}.cls-6{fill:#f7e2c3;}.cls-7{fill:#e7bc90;}.cls-8{isolation:isolate;}.cls-9{fill:#534741;}.cls-10{stroke-width:.37px;}.cls-10,.cls-11,.cls-12,.cls-13{fill:none;}.cls-10,.cls-12,.cls-13{stroke-miterlimit:10;}.cls-10,.cls-13{stroke:#554536;stroke-linecap:round;}.cls-14{fill:#9db0b6;}.cls-15{fill:#aa534f;}.cls-16{fill:#58889c;}.cls-17{fill:#554536;}.cls-18{fill:#a28178;}.cls-19{fill:#b5c4c8;}.cls-20{fill:#eed0b8;mix-blend-mode:multiply;}.cls-21{fill:#ecc9a6;}.cls-12{stroke:#58889c;stroke-width:1.2px;}.cls-22{fill:#b8aea5;}.cls-13{stroke-width:.98px;}.cls-23{fill:#715d56;}.cls-24{fill:#e3ebeb;}</style><pattern id="New_Pattern_4" x="0" y="0" width="131.86" height="134.63" patternTransform="translate(-8633.03 -7480.9) rotate(-27) scale(.07)" patternUnits="userSpaceOnUse" viewBox="0 0 131.86 134.63"><g><rect class="cls-11" width="131.86" height="134.63"/><rect class="cls-9" x="105.48" width="8.37" height="134.63"/><rect class="cls-9" x="79.11" width="8.37" height="134.63"/><rect class="cls-9" x="52.74" width="8.37" height="134.63"/><rect class="cls-9" x="26.37" width="8.37" height="134.63"/><rect class="cls-9" width="8.37" height="134.63"/></g></pattern><pattern id="New_Pattern_4-2" patternTransform="translate(-9113.75 -8479.92) rotate(-117) scale(.07)" xlink:href="#New_Pattern_4"/></defs><g class="cls-8"><g id="Layer_1"><circle class="cls-12" cx="53.01" cy="53.01" r="52.41"/><ellipse class="cls-4" cx="58.31" cy="128.15" rx="4.51" ry="7.15"/><ellipse class="cls-4" cx="84.31" cy="120.65" rx="4.51" ry="7.15" transform="translate(-62.17 106.26) rotate(-49.44)"/><path class="cls-21" d="M53.78,106.42s1.19,20.87,3.9,23.86c2.71,3,5.59-24.92,5.59-24.92l-9.49,1.06Z"/><path class="cls-21" d="M69.17,110.03c.45-.1,13.28,13.67,16.71,11.71,3.43-1.96-13.89-21.57-13.89-21.57l-2.82,9.86Z"/><path class="cls-14" d="M57.68,103.4s10.56,8.54,14.42,3.03c3.86-5.51,5.26-10.02-4.46-24.22-9.72-14.2-9.95,21.19-9.95,21.19Z"/><path class="cls-23" d="M44.9,13.56c-1.21,1.02-2.95,1.06-4.22,.11-2.55-1.89-7.39-3.19-12.74,7.12-7.89,15.18-5.96,28.06-2.7,45.76,2.53,13.75-5.09,7.41-8.61,3.9-.48-.48-1.26,.02-1.04,.66,2.01,5.68,9.73,17.85,36.91-1.61,24.83,7.78,34.35,5.35,37.67-4.36,.17-.49-.35-.93-.8-.67-9.46,5.37-10.36-.57-10.09-7.38,.28-6.96,3.52-75.46-34.37-43.53Z"/><path class="cls-7" d="M74.93,54.91c-3.31-4.44-15.61-.82-17.26-2.47-1.65-1.65-1.47-5.81-1.47-5.81h-6.38s.18,4.16-1.47,5.81c-1.65,1.65-13.95-1.97-17.26,2.47-1.68,2.25,3.34,6.51,3.34,6.51h37.16s5.02-4.26,3.34-6.51Z"/><path class="cls-21" d="M41.19,21.94l-5.82,.67c.25,1.34,.65,5.81,.74,7.17,.32,4.68,2.49,17.79,16.85,17.79s17.22-13.68,17.66-18.08v-.04c.31-3.05,.47-6.11,.35-9.17l-3.17-.91-26.61,2.57Z"/><circle class="cls-3" cx="44.72" cy="31.87" r="3.89"/><circle class="cls-22" cx="44.33" cy="31.69" r="3.46"/><g><circle class="cls-17" cx="44.33" cy="31.69" r="2.54"/><circle class="cls-3" cx="43.23" cy="29.69" r=".69"/><circle class="cls-3" cx="45.62" cy="33.95" r=".41"/><circle class="cls-3" cx="42.19" cy="30.27" r=".28"/><circle class="cls-3" cx="42.7" cy="30.82" r=".19"/></g><path class="cls-13" d="M45.93,25.85s-3.82-1.56-5.94,2.13"/><g><path class="cls-10" d="M38.78,29.15c.63,1.43,2.41,1.02,2.41,1.02"/><path class="cls-10" d="M38.27,31.07c1.18,1.03,2.61-.11,2.61-.11"/><path class="cls-10" d="M38.72,33.02c1.55,.25,2.16-1.47,2.16-1.47"/><path class="cls-10" d="M44.9,27.98s-4.34-.13-4.01,4.52"/></g><circle class="cls-3" cx="61.18" cy="31.87" r="3.89"/><circle class="cls-22" cx="61.57" cy="31.69" r="3.46"/><path class="cls-13" d="M59.98,25.85s3.82-1.56,5.94,2.13"/><path class="cls-10" d="M67.12,29.15c-.63,1.43-2.41,1.02-2.41,1.02"/><path class="cls-10" d="M67.63,31.07c-1.18,1.03-2.61-.11-2.61-.11"/><path class="cls-10" d="M67.19,33.02c-1.55,.25-2.16-1.47-2.16-1.47"/><path class="cls-10" d="M61.01,27.98s4.34-.13,4.01,4.52"/><circle class="cls-17" cx="61.57" cy="31.69" r="2.54"/><path class="cls-15" d="M57.52,40.23c-.4,.21-.9,.39-1.34,.34-.91-.11-1.2-1.52-2-1.64-.48-.07-.84,.54-1.05,1.04-.08,.19-.35,.19-.43,0-.21-.49-.57-1.1-1.05-1.04-.8,.11-1.09,1.52-2,1.64-.43,.05-.93-.13-1.34-.34-.11-.06-.22,.09-.12,.18,.21,.18,.45,.36,.73,.52,.37,2.06,2.27,2.23,3.31,2.17,.45-.03,.91-.03,1.37,0,1.04,.07,2.94-.11,3.31-2.17,.28-.16,.53-.35,.73-.52,.1-.08,0-.24-.12-.18Z"/><path class="cls-15" d="M57.64,40.41c-.21,.18-.45,.36-.73,.52-.47,.27-1.03,.47-1.63,.43-.24-.02-.47-.02-.67,0-.04,0-.09,0-.13,0-.37,.03-.66,.09-.9,.16-.02,0-.05,.02-.07,.02-.02,0-.04,.02-.07,.02-.02,0-.04,.02-.06,.02-.04,.02-.08,.03-.11,.05-.22,.1-.48,.1-.7,0-.03-.02-.07-.03-.11-.05-.02,0-.04-.02-.06-.02-.02,0-.04-.02-.07-.02-.02,0-.05-.02-.07-.02-.23-.07-.53-.14-.9-.16-.04,0-.09,0-.13,0-.2-.01-.43-.01-.67,0-.6,.04-1.16-.16-1.63-.43-.28-.16-.53-.35-.73-.52-.1-.08,0-.23,.12-.18,.4,.21,.9,.39,1.34,.34,.91-.11,1.2-1.52,2-1.64,.48-.07,.84,.54,1.05,1.04,.08,.19,.35,.19,.43,0,.21-.49,.57-1.1,1.05-1.04,.8,.11,1.09,1.53,2,1.64,.43,.05,.93-.13,1.34-.34,.11-.06,.22,.09,.12,.18Z"/><path class="cls-5" d="M56.91,40.94c-.37,2.06-2.27,2.23-3.31,2.17-.45-.03-.91-.03-1.37,0-1.04,.07-2.94-.11-3.31-2.17,.47,.27,1.03,.47,1.63,.43,.24-.02,.47-.02,.67,0,.04,0,.09,0,.13,0,.37,.03,.66,.09,.9,.16,.02,0,.05,.02,.07,.02,.02,0,.04,.02,.07,.02,.02,0,.04,.02,.06,.02,.04,.02,.08,.03,.11,.05,.22,.1,.48,.1,.7,0,.03-.02,.07-.03,.11-.05,.02,0,.04-.02,.06-.02,.02,0,.04-.02,.07-.02,.02,0,.05-.02,.07-.02,.23-.07,.53-.14,.9-.16,.04,0,.09,0,.13,0,.2-.01,.43-.01,.67,0,.6,.04,1.16-.16,1.63-.43Z"/><path class="cls-20" d="M53.87,34.93c.32,0,.6,.12,.75,.31,.52,.66,1.37,2.13-1.63,2.13s-2.06-1.51-1.51-2.16c.15-.18,.43-.28,.73-.28h1.65Z"/><circle class="cls-17" cx="61.57" cy="31.69" r="2.54"/><circle class="cls-3" cx="60.47" cy="29.69" r=".69"/><circle class="cls-3" cx="62.86" cy="33.95" r=".41"/><circle class="cls-3" cx="59.43" cy="30.27" r=".28"/><circle class="cls-3" cx="59.93" cy="30.82" r=".19"/><path class="cls-18" d="M37.62,17.93c.99,1.14,1.57,2.58,1.71,4.09,.45,4.7,1.35,16.68-.72,19.87-1.82,2.81-5.93,.06-8.2-1.83-.24-.2-.04-.6,.27-.51,1,.3,2.17,.29,2.86-.93,1.28-2.28-1.43-27.01,4.09-20.69Z"/><path class="cls-18" d="M67.79,19.38s-3.74,21.19,1.8,23.3c2.88,1.1,4.85,.84,6.08,.34,.48-.19,.31-.91-.21-.88-1.67,.08-3.77-.26-3.08-2.67,1.09-3.86,4.05-20.17-4.59-20.09Z"/><path class="cls-18" d="M38.48,18.78c-.71-.28-1.37,.49-1,1.15,1.68,2.95,5.98,7.87,15.69,6.85,10.91-1.15,16.99-3.54,19.02-4.46,.51-.23,.81-.76,.75-1.32-.17-1.65-1.17-5-6.38-6.34-6.61-1.7-17.91,8.1-28.07,4.12Z"/><path class="cls-6" d="M46.14,52.02c.62,0,1.18,.37,1.41,.95,.64,1.63,2.35,4.78,6.03,4.78s4.78-2.64,5.23-4.18c.19-.65,.8-1.08,1.47-1.07l8.27,.11,2.23,33.29c.13,1.95-1.34,3.64-3.3,3.76-7.33,.48-23.97,1.39-29.21,.23-.75-.17-1.25-.87-1.18-1.64,.93-9.7,2.09-36.24,2.09-36.24h6.97Z"/><path class="cls-1" d="M46.14,52.02c.62,0,1.18,.37,1.41,.95,.64,1.63,2.35,4.78,6.03,4.78s4.78-2.64,5.23-4.18c.19-.65,.8-1.08,1.47-1.07l8.27,.11,2.23,33.29c.13,1.95-1.34,3.64-3.3,3.76-7.33,.48-23.97,1.39-29.21,.23-.75-.17-1.25-.87-1.18-1.64,.93-9.7,2.09-36.24,2.09-36.24h6.97Z"/><path class="cls-2" d="M46.14,52.02c.62,0,1.18,.37,1.41,.95,.64,1.63,2.35,4.78,6.03,4.78s4.78-2.64,5.23-4.18c.19-.65,.8-1.08,1.47-1.07l8.27,.11,2.23,33.29c.13,1.95-1.34,3.64-3.3,3.76-7.33,.48-23.97,1.39-29.21,.23-.75-.17-1.25-.87-1.18-1.64,.93-9.7,2.09-36.24,2.09-36.24h6.97Z"/><path class="cls-24" d="M53.74,69.87l-5.64-4.08c-.31-.23-.75,.01-.73,.4l.41,7.49c.01,.2,.15,.36,.34,.42l5.23,1.44c.29,.08,.58-.14,.58-.44v-4.85c0-.15-.07-.29-.19-.37Z"/><path class="cls-18" d="M46.87,81.42l-1.68-14.33c-.05-.44,.4-.77,.8-.59l6.22,2.79c.62,.28,1.32,.27,1.93-.03l6.53-3.15c.38-.18,.8,.13,.74,.55l-2.39,15.19-12.15-.43Z"/><path class="cls-7" d="M33.36,69.46s4.84,15.98,7.52,16.82c4.48,1.41,16.94-10.77,15.85-14.52-1.09-3.75-5.17,2.31-5.16,1.14,.01-1.17,1.26-1.49,1.43-2.36,.17-.88-3.06,1.3-3.48,2.52-1.31,3.88-4.8,5.49-5.74,6.1-.09,.06-.2,0-.22-.09l-2.31-19.74-7.9,10.12Z"/><path class="cls-16" d="M33.36,70.6l1.06,3.9c.13,.48,.66,.73,1.11,.53l7.67-3.43c.41-.18,.59-.67,.4-1.08l-2.22-4.84-8.02,4.92Z"/><path class="cls-6" d="M37.74,71.6c-2.27,1.34-5.24,.78-6.76-1.36-.08-.11-.15-.22-.22-.33-2.03-3.27-5.28-17.37,3.69-18.96,7.75-1.38,15.11,13.7,3.3,20.66Z"/><path class="cls-21" d="M75.28,66.5s-2.36,20.56-7.24,20.38c-7.36-.28-7.83-4.96-12.18-8.22-3.34-2.49-8.26-1.33-6.02-3.84s5.57-.06,5.61-.5c.13-1.23-1.71-2-.29-2,.9,0,1.94,1.46,3.25,2.64,2.52,2.28,4.15,3.05,6.21,3.81,.61,.23,1.26,.15,1.35-.5l1.32-15.43,8,3.65Z"/><path class="cls-16" d="M65.87,68.57l.02,3.33c-.1,.51,.3,.99,.83,.97l8.25-.35c2.3-.19,.31-4.44,.31-4.44l-9.41,.5Z"/><path class="cls-6" d="M67.32,70.71c-.83-.09-1.57-.58-1.87-1.36-1.62-4.24-6.11-17.87,3.09-17.92,10.9-.07,9.79,8.95,8.62,12.83-1.21,4-.55,7.51-9.84,6.46Z"/><path class="cls-19" d="M42.01,82.81l-3.82,5.44c-.78,1.12-1.63,2.2-2.55,3.2-8.64,9.38,4.66,26.56,15.88,16.28,4.41-4.04,2.77-15.75,2.84-15.88,.86-1.4,7.24,1.28,9.09,6.83,2,6.01,3.77,12.05,3.69,15.17-.02,.98,.77,1.78,1.74,1.76,2.25-.06,6.29-.91,10.4-5.4,3.89-4.24,5.3-7.06,5.81-8.56,.25-.73-.02-1.53-.66-1.96-3.25-2.16-13.83-9.34-16.93-13.13-3.37-4.12-10.57-12.6-21.12-7.51-1.75,.85-3.25,2.15-4.37,3.74Z"/><path class="cls-14" d="M52.07,118.03c-.72-.25-1.19-.94-1.18-1.7,.08-5.44,.73-26.76,6-27.18,5.45-.44,9.96,20.09,10.78,24.1,.1,.46,0,.94-.25,1.33-1.25,1.86-5.63,6.8-15.34,3.45Z"/><path class="cls-16" d="M47.35,52.7c-.25-.35-.77-.34-1.02,0-.79,1.09-1.92,3.24,.23,4.44,2.49,1.39,5.3,.85,6.12,.65,.16-.04,.33-.04,.49,0,1.14,.32,5.82,1.52,6.76,.27,1.64-2.16-.03-3.36-.53-4.64-.12-.31-.56-.32-.68,0-.61,1.45-2.21,4.13-5.71,3.8-2.26-.21-4.67-3.16-5.67-4.51Z"/></g></g></svg>