<?xml version="1.0" encoding="UTF-8"?>
<svg id="Layer_1" xmlns="http://www.w3.org/2000/svg" viewBox="0 0 1366 600">
<defs>
<style>.cls-1{fill:#9db0b6;}.cls-2{fill:#c4d0d3;}.cls-3{fill:#70625f;}.cls-4{fill:#b9c7cb;}.cls-5{fill:#8c7e7b;}
<![CDATA[

        @keyframes plant01_anim
        {
            0%
            {
                transform: rotate(0deg); 
            }
            
            50%
            {
                transform: rotate(30deg);
            }
            75%
            {
                transform: rotate(-30deg);
            }
            100%
            {
                transform: rotate(0deg);
            }
        }

        @keyframes plant02_anim
        {
            0%
            {
                transform: rotate(0deg);
            }
            
            50%
            {
                transform: rotate(20deg);
            }
            75%
            {
                transform: rotate(-20deg);
            }
            100%
            {
                transform: rotate(0deg);
            }
        }

        @keyframes plant03_anim
        {
            0%
            {
                transform: rotate(0deg);
            }
            
            50%
            {
                transform: rotate(10deg);
            }
            75%
            {
                transform: rotate(-10deg);
            }
            100%
            {
                transform: rotate(0deg);
            }
        }

        .cls-4
        {
            
            transform-origin: 335.1537px 398.0274px;
            animation: plant01_anim 9s infinite;
        }

        .cls-1
        {
            
            transform-origin: 338.2479px 397.9513px;
            animation: plant02_anim 5s infinite;
        }

        .cls-2
        {
            
            transform-origin: 317.2741px 383.2685px;
            animation: plant03_anim 4s infinite;
        }
        
        ]]>
</style>
</defs>

<path class="cls-4" d="M305.86,259.52c-.07-2.4,2.91-3.55,4.46-1.71,10.07,11.9,32.16,41.75,23.66,65.83-7.84,22.21,.29,55.22,5.45,71.93,.8,2.58-2.45,4.45-4.28,2.46-11.57-12.57-31.67-37.38-29.78-56.32,2.09-21.06,1.02-65.11,.5-82.19Z"/>

<path class="cls-1" d="M342.87,397.67c-.77,2.06-3.62,2.24-4.63,.28-7.55-14.74-27.72-60.31-6.23-90.51,21.3-29.94,46.93-65.5,55.41-77.25,1.22-1.69,3.84-1.27,4.46,.73,3.37,10.8,10.25,37.92,1.64,57.21-10.98,24.59-47.43,33.81-43.47,59.72,2.95,19.35-3.65,40.4-7.18,49.83Z"/>

<path class="cls-2" d="M320.35,379.61c1.22,2.07-.84,4.51-3.08,3.65-14.56-5.56-48.32-21.04-52.51-46.23-3.86-23.24-26.92-48.22-39.5-60.36-1.94-1.88,0-5.08,2.56-4.22,16.19,5.42,45.78,17.45,53.27,34.94,8.34,19.45,30.54,57.52,39.24,72.21Z"/>

<path class="cls-5" d="M387.74,432.11v71.24c0,7.88-6.45,14.33-14.33,14.33h-105.38c-7.88,0-14.33-6.45-14.33-14.33v-79.41c11.81-6.41,25.71-8.19,40.48,1.55,6.21,4.1,11.5,7.74,16.08,10.97,26.48,18.62,29.2,23.04,47.52,17.7,9.63-2.82,20.69-12.36,29.97-22.05Z"/>

<path class="cls-3" d="M387.74,389.42v42.68c-9.28,9.69-20.34,19.23-29.97,22.05-18.32,5.34-21.04,.92-47.52-17.7-4.58-3.23-9.87-6.87-16.08-10.97-14.78-9.75-28.67-7.97-40.48-1.55v-34.51c0-7.88,6.45-14.33,14.33-14.33h105.38c7.88,0,14.33,6.45,14.33,14.33Z"/>

</svg>