<?xml version="1.0" encoding="UTF-8"?><svg id="Layer_1" xmlns="http://www.w3.org/2000/svg" viewBox="0 0 1092.8 335.92"><defs><style>.cls-1{fill:#4f4840;}.cls-2{font-size:12px;}.cls-2,.cls-3{font-family:XanhMono-Regular, 'Xanh Mono';}.cls-4{fill:#58889c;font-family:FrederickatheGreat-Regular, 'Fredericka the Great';font-size:24px;}.cls-3{font-size:18px;}.cls-5{fill:none;stroke:#58889c;stroke-linecap:round;stroke-miterlimit:10;}</style></defs><text class="cls-4" transform="translate(25.09 148.82) rotate(-90)"><tspan x="0" y="0">Languages</tspan></text><text class="cls-4" transform="translate(390.66 162.58) rotate(-90)"><tspan x="0" y="0">Frameworks</tspan></text><text class="cls-4" transform="translate(776.25 95.87) rotate(-90)"><tspan x="0" y="0">UI/UX</tspan></text><g><rect class="cls-1" x="138.39" y="29.03" width="14.91" height="21.38"/><rect class="cls-1" x="153.3" y="29.03" width="14.91" height="21.38"/><rect class="cls-1" x="168.2" y="29.03" width="14.91" height="21.38"/><rect class="cls-1" x="183.11" y="29.03" width="14.91" height="21.38"/><rect class="cls-1" x="198.02" y="29.03" width="14.91" height="21.38"/><rect class="cls-1" x="212.92" y="29.03" width="14.91" height="21.38"/><rect class="cls-1" x="227.83" y="29.03" width="14.91" height="21.38"/><rect class="cls-1" x="242.73" y="29.03" width="14.91" height="21.38"/><rect class="cls-1" x="257.64" y="29.03" width="14.91" height="21.38"/><text class="cls-3" transform="translate(95.81 45.63)"><tspan x="0" y="0">Java</tspan></text><text class="cls-2" transform="translate(296.29 43.66)"><tspan x="0" y="0">90%</tspan></text><rect class="cls-1" x="138.39" y="67.28" width="14.91" height="21.38"/><rect class="cls-1" x="153.3" y="67.28" width="14.91" height="21.38"/><rect class="cls-1" x="168.2" y="67.28" width="14.91" height="21.38"/><rect class="cls-1" x="183.11" y="67.28" width="14.91" height="21.38"/><rect class="cls-1" x="198.02" y="67.28" width="14.91" height="21.38"/><rect class="cls-1" x="212.92" y="67.28" width="14.91" height="21.38"/><rect class="cls-1" x="227.83" y="67.28" width="14.91" height="21.38"/><rect class="cls-1" x="242.73" y="67.28" width="14.91" height="21.38"/><rect class="cls-1" x="257.64" y="67.28" width="14.91" height="21.38"/><text class="cls-3" transform="translate(104.81 83.88)"><tspan x="0" y="0">C++</tspan></text><text class="cls-2" transform="translate(296.29 81.91)"><tspan x="0" y="0">90%</tspan></text><rect class="cls-1" x="138.39" y="105.53" width="14.91" height="21.38"/><rect class="cls-1" x="153.3" y="105.53" width="14.91" height="21.38"/><rect class="cls-1" x="168.2" y="105.53" width="14.91" height="21.38"/><rect class="cls-1" x="183.11" y="105.53" width="14.91" height="21.38"/><rect class="cls-1" x="198.02" y="105.53" width="14.91" height="21.38"/><rect class="cls-1" x="212.92" y="105.53" width="14.91" height="21.38"/><rect class="cls-1" x="227.83" y="105.53" width="14.91" height="21.38"/><text class="cls-3" transform="translate(77.81 122.13)"><tspan x="0" y="0">Python</tspan></text><text class="cls-2" transform="translate(296.29 120.16)"><tspan x="0" y="0">70%</tspan></text><rect class="cls-1" x="138.39" y="143.78" width="14.91" height="21.38"/><rect class="cls-1" x="153.3" y="143.78" width="14.91" height="21.38"/><rect class="cls-1" x="168.2" y="143.78" width="14.91" height="21.38"/><rect class="cls-1" x="183.11" y="143.78" width="14.91" height="21.38"/><rect class="cls-1" x="198.02" y="143.78" width="14.91" height="21.38"/><rect class="cls-1" x="212.92" y="143.78" width="14.91" height="21.38"/><rect class="cls-1" x="227.83" y="143.78" width="14.91" height="21.38"/><rect class="cls-1" x="242.73" y="143.78" width="14.91" height="21.38"/><text class="cls-3" transform="translate(104.81 160.38)"><tspan x="0" y="0">PHP</tspan></text><text class="cls-2" transform="translate(296.29 158.41)"><tspan x="0" y="0">80%</tspan></text><rect class="cls-1" x="138.39" y="182.03" width="14.91" height="21.38"/><rect class="cls-1" x="153.3" y="182.03" width="14.91" height="21.38"/><rect class="cls-1" x="168.2" y="182.03" width="14.91" height="21.38"/><rect class="cls-1" x="183.11" y="182.03" width="14.91" height="21.38"/><rect class="cls-1" x="198.02" y="182.03" width="14.91" height="21.38"/><rect class="cls-1" x="212.92" y="182.03" width="14.91" height="21.38"/><rect class="cls-1" x="227.83" y="182.03" width="14.91" height="21.38"/><rect class="cls-1" x="242.73" y="182.03" width="14.91" height="21.38"/><rect class="cls-1" x="257.64" y="182.03" width="14.91" height="21.38"/><text class="cls-3" transform="translate(41.81 198.63)"><tspan x="0" y="0">JavaScript</tspan></text><text class="cls-2" transform="translate(296.29 196.66)"><tspan x="0" y="0">90%</tspan></text><g><rect class="cls-1" x="138.39" y="220.28" width="14.91" height="21.38"/><rect class="cls-1" x="153.3" y="220.28" width="14.91" height="21.38"/><rect class="cls-1" x="168.2" y="220.28" width="14.91" height="21.38"/><rect class="cls-1" x="183.11" y="220.28" width="14.91" height="21.38"/><rect class="cls-1" x="198.02" y="220.28" width="14.91" height="21.38"/><rect class="cls-1" x="212.92" y="220.28" width="14.91" height="21.38"/><rect class="cls-1" x="227.83" y="220.28" width="14.91" height="21.38"/><rect class="cls-1" x="242.73" y="220.28" width="14.91" height="21.38"/><rect class="cls-1" x="257.64" y="220.28" width="14.91" height="21.38"/><rect class="cls-1" x="272.55" y="220.28" width="14.91" height="21.38"/></g><text class="cls-3" transform="translate(95.81 236.88)"><tspan x="0" y="0">HTML</tspan></text><text class="cls-2" transform="translate(296.29 234.91)"><tspan x="0" y="0">100%</tspan></text><g><rect class="cls-1" x="138.39" y="258.53" width="14.91" height="21.38"/><rect class="cls-1" x="153.3" y="258.53" width="14.91" height="21.38"/><rect class="cls-1" x="168.2" y="258.53" width="14.91" height="21.38"/><rect class="cls-1" x="183.11" y="258.53" width="14.91" height="21.38"/><rect class="cls-1" x="198.02" y="258.53" width="14.91" height="21.38"/><rect class="cls-1" x="212.92" y="258.53" width="14.91" height="21.38"/><rect class="cls-1" x="227.83" y="258.53" width="14.91" height="21.38"/><rect class="cls-1" x="242.73" y="258.53" width="14.91" height="21.38"/><rect class="cls-1" x="257.64" y="258.53" width="14.91" height="21.38"/><rect class="cls-1" x="272.55" y="258.53" width="14.91" height="21.38"/></g><text class="cls-3" transform="translate(104.81 275.13)"><tspan x="0" y="0">CSS</tspan></text><text class="cls-2" transform="translate(296.29 273.16)"><tspan x="0" y="0">100%</tspan></text><rect class="cls-1" x="138.39" y="296.78" width="14.91" height="21.38"/><rect class="cls-1" x="153.3" y="296.78" width="14.91" height="21.38"/><rect class="cls-1" x="168.2" y="296.78" width="14.91" height="21.38"/><rect class="cls-1" x="183.11" y="296.78" width="14.91" height="21.38"/><rect class="cls-1" x="198.02" y="296.78" width="14.91" height="21.38"/><rect class="cls-1" x="212.92" y="296.78" width="14.91" height="21.38"/><rect class="cls-1" x="227.83" y="296.78" width="14.91" height="21.38"/><rect class="cls-1" x="242.73" y="296.78" width="14.91" height="21.38"/><rect class="cls-1" x="257.64" y="296.78" width="14.91" height="21.38"/><text class="cls-3" transform="translate(77.81 313.38)"><tspan x="0" y="0">PL/SQL</tspan></text><text class="cls-2" transform="translate(296.29 311.41)"><tspan x="0" y="0">90%</tspan></text></g><g><rect class="cls-1" x="519.82" y="29.03" width="14.91" height="21.38"/><rect class="cls-1" x="534.73" y="29.03" width="14.91" height="21.38"/><rect class="cls-1" x="549.64" y="29.03" width="14.91" height="21.38"/><rect class="cls-1" x="564.54" y="29.03" width="14.91" height="21.38"/><rect class="cls-1" x="579.45" y="29.03" width="14.91" height="21.38"/><rect class="cls-1" x="594.36" y="29.03" width="14.91" height="21.38"/><rect class="cls-1" x="609.26" y="29.03" width="14.91" height="21.38"/><rect class="cls-1" x="624.17" y="29.03" width="14.91" height="21.38"/><text class="cls-3" transform="translate(450.25 45.63)"><tspan x="0" y="0">ReactJS</tspan></text><text class="cls-2" transform="translate(677.73 43.66)"><tspan x="0" y="0">80%</tspan></text><rect class="cls-1" x="519.82" y="67.28" width="14.91" height="21.38"/><rect class="cls-1" x="534.73" y="67.28" width="14.91" height="21.38"/><rect class="cls-1" x="549.64" y="67.28" width="14.91" height="21.38"/><rect class="cls-1" x="564.54" y="67.28" width="14.91" height="21.38"/><rect class="cls-1" x="579.45" y="67.28" width="14.91" height="21.38"/><rect class="cls-1" x="594.36" y="67.28" width="14.91" height="21.38"/><rect class="cls-1" x="609.26" y="67.28" width="14.91" height="21.38"/><rect class="cls-1" x="624.17" y="67.28" width="14.91" height="21.38"/><text class="cls-3" transform="translate(459.25 83.88)"><tspan x="0" y="0">NodeJS</tspan></text><text class="cls-2" transform="translate(677.73 81.91)"><tspan x="0" y="0">80%</tspan></text><rect class="cls-1" x="519.82" y="105.53" width="14.91" height="21.38"/><rect class="cls-1" x="534.73" y="105.53" width="14.91" height="21.38"/><rect class="cls-1" x="549.64" y="105.53" width="14.91" height="21.38"/><rect class="cls-1" x="564.54" y="105.53" width="14.91" height="21.38"/><rect class="cls-1" x="579.45" y="105.53" width="14.91" height="21.38"/><rect class="cls-1" x="594.36" y="105.53" width="14.91" height="21.38"/><rect class="cls-1" x="609.26" y="105.53" width="14.91" height="21.38"/><text class="cls-3" transform="translate(450.25 122.13)"><tspan x="0" y="0">MongoDB</tspan></text><text class="cls-2" transform="translate(677.73 120.16)"><tspan x="0" y="0">70%</tspan></text><rect class="cls-1" x="519.82" y="143.78" width="14.91" height="21.38"/><rect class="cls-1" x="534.73" y="143.78" width="14.91" height="21.38"/><rect class="cls-1" x="549.64" y="143.78" width="14.91" height="21.38"/><rect class="cls-1" x="564.54" y="143.78" width="14.91" height="21.38"/><rect class="cls-1" x="579.45" y="143.78" width="14.91" height="21.38"/><rect class="cls-1" x="594.36" y="143.78" width="14.91" height="21.38"/><rect class="cls-1" x="609.26" y="143.78" width="14.91" height="21.38"/><rect class="cls-1" x="624.17" y="143.78" width="14.91" height="21.38"/><text class="cls-3" transform="translate(432.25 160.38)"><tspan x="0" y="0">Bootstrap</tspan></text><text class="cls-2" transform="translate(677.73 158.41)"><tspan x="0" y="0">80%</tspan></text><rect class="cls-1" x="519.82" y="182.03" width="14.91" height="21.38"/><rect class="cls-1" x="534.73" y="182.03" width="14.91" height="21.38"/><rect class="cls-1" x="549.64" y="182.03" width="14.91" height="21.38"/><rect class="cls-1" x="564.54" y="182.03" width="14.91" height="21.38"/><rect class="cls-1" x="579.45" y="182.03" width="14.91" height="21.38"/><rect class="cls-1" x="594.36" y="182.03" width="14.91" height="21.38"/><rect class="cls-1" x="609.26" y="182.03" width="14.91" height="21.38"/><rect class="cls-1" x="624.17" y="182.03" width="14.91" height="21.38"/><text class="cls-3" transform="translate(450.25 198.63)"><tspan x="0" y="0">Laravel</tspan></text><text class="cls-2" transform="translate(677.73 196.66)"><tspan x="0" y="0">80%</tspan></text><rect class="cls-1" x="519.82" y="220.28" width="14.91" height="21.38"/><rect class="cls-1" x="534.73" y="220.28" width="14.91" height="21.38"/><rect class="cls-1" x="549.64" y="220.28" width="14.91" height="21.38"/><rect class="cls-1" x="564.54" y="220.28" width="14.91" height="21.38"/><rect class="cls-1" x="579.45" y="220.28" width="14.91" height="21.38"/><rect class="cls-1" x="594.36" y="220.28" width="14.91" height="21.38"/><rect class="cls-1" x="609.26" y="220.28" width="14.91" height="21.38"/><rect class="cls-1" x="624.17" y="220.28" width="14.91" height="21.38"/><rect class="cls-1" x="639.07" y="220.28" width="14.91" height="21.38"/><text class="cls-3" transform="translate(450.25 236.88)"><tspan x="0" y="0">Android</tspan></text><text class="cls-2" transform="translate(677.73 234.91)"><tspan x="0" y="0">90%</tspan></text></g><rect class="cls-1" x="897.48" y="29.03" width="14.91" height="21.38"/><rect class="cls-1" x="912.38" y="29.03" width="14.91" height="21.38"/><rect class="cls-1" x="927.29" y="29.03" width="14.91" height="21.38"/><rect class="cls-1" x="942.19" y="29.03" width="14.91" height="21.38"/><rect class="cls-1" x="957.1" y="29.03" width="14.91" height="21.38"/><rect class="cls-1" x="972.01" y="29.03" width="14.91" height="21.38"/><rect class="cls-1" x="986.91" y="29.03" width="14.91" height="21.38"/><rect class="cls-1" x="1001.82" y="29.03" width="14.91" height="21.38"/><rect class="cls-1" x="1016.73" y="29.03" width="14.91" height="21.38"/><rect class="cls-1" x="1031.63" y="29.03" width="14.91" height="21.38"/><rect class="cls-1" x="986.91" y="67.28" width="14.91" height="21.38"/><rect class="cls-1" x="1001.82" y="67.28" width="14.91" height="21.38"/><rect class="cls-1" x="1016.73" y="67.28" width="14.91" height="21.38"/><rect class="cls-1" x="1031.63" y="67.28" width="14.91" height="21.38"/><text class="cls-3" transform="translate(791.9 45.63)"><tspan x="0" y="0">Illustrator</tspan></text><text class="cls-2" transform="translate(1055.38 43.66)"><tspan x="0" y="0">100%</tspan></text><rect class="cls-1" x="897.48" y="67.28" width="14.91" height="21.38"/><rect class="cls-1" x="912.38" y="67.28" width="14.91" height="21.38"/><rect class="cls-1" x="927.29" y="67.28" width="14.91" height="21.38"/><rect class="cls-1" x="942.19" y="67.28" width="14.91" height="21.38"/><rect class="cls-1" x="957.1" y="67.28" width="14.91" height="21.38"/><rect class="cls-1" x="972.01" y="67.28" width="14.91" height="21.38"/><text class="cls-3" transform="translate(809.9 83.88)"><tspan x="0" y="0">Photoshop</tspan></text><text class="cls-2" transform="translate(1055.38 81.91)"><tspan x="0" y="0">100%</tspan></text><rect class="cls-1" x="986.91" y="105.53" width="14.91" height="21.38"/><rect class="cls-1" x="1001.82" y="105.53" width="14.91" height="21.38"/><rect class="cls-1" x="1016.73" y="105.53" width="14.91" height="21.38"/><rect class="cls-1" x="1031.63" y="105.53" width="14.91" height="21.38"/><rect class="cls-1" x="897.48" y="105.53" width="14.91" height="21.38"/><rect class="cls-1" x="912.38" y="105.53" width="14.91" height="21.38"/><rect class="cls-1" x="927.29" y="105.53" width="14.91" height="21.38"/><rect class="cls-1" x="942.19" y="105.53" width="14.91" height="21.38"/><rect class="cls-1" x="957.1" y="105.53" width="14.91" height="21.38"/><rect class="cls-1" x="972.01" y="105.53" width="14.91" height="21.38"/><text class="cls-3" transform="translate(872.9 122.13)"><tspan x="0" y="0">XD</tspan></text><text class="cls-2" transform="translate(1055.38 120.16)"><tspan x="0" y="0">100%</tspan></text><line class="cls-5" x1="16.12" y1="149.41" x2="16.12" y2="318.15"/><line class="cls-5" x1="381.61" y1="163.8" x2="381.61" y2="318.15"/><line class="cls-5" x1="767.12" y1="97.06" x2="767.12" y2="318.15"/></svg>